<?xml version="1.0" encoding="UTF-8" standalone="no"?>
<svg
   viewBox="0 0 512 512"
   xml:space="preserve"
   version="1.1"
   id="svg852"
   sodipodi:docname="North.svg"
   inkscape:version="1.1.1 (3bf5ae0d25, 2021-09-20)"
   xmlns:inkscape="http://www.inkscape.org/namespaces/inkscape"
   xmlns:sodipodi="http://sodipodi.sourceforge.net/DTD/sodipodi-0.dtd"
   xmlns="http://www.w3.org/2000/svg"
   xmlns:svg="http://www.w3.org/2000/svg"><defs
     id="defs856" /><sodipodi:namedview
     id="namedview854"
     pagecolor="#ffffff"
     bordercolor="#666666"
     borderopacity="1.0"
     inkscape:pageshadow="2"
     inkscape:pageopacity="0.0"
     inkscape:pagecheckerboard="0"
     showgrid="false"
     inkscape:zoom="1.5292969"
     inkscape:cx="255.67305"
     inkscape:cy="157.26181"
     inkscape:window-width="1920"
     inkscape:window-height="1001"
     inkscape:window-x="2391"
     inkscape:window-y="-9"
     inkscape:window-maximized="1"
     inkscape:current-layer="svg852" /><path
     d="m 115.5,481.5 c 0,4.4 -3.6,8 -8,8 h -43 c -4.4,0 -8,-3.6 -8,-8 0,-4.4 3.6,-8 8,-8 h 43 c 4.4,0 8,3.6 8,8 z M 412.5,58 h 43 c 4.4,0 8,-3.6 8,-8 0,-4.4 -3.6,-8 -8,-8 h -43 c -4.4,0 -8,3.6 -8,8 0,4.4 3.6,8 8,8 z m 51,26 c 0,-4.4 -3.6,-8 -8,-8 h -67 c -4.4,0 -8,3.6 -8,8 0,4.4 3.6,8 8,8 h 67 c 4.4,0 8,-3.6 8,-8 z M 79.2,108.7 c 0,-4.4 -3.6,-8 -8,-8 -5.7,0 -10.4,-4.7 -10.4,-10.4 0,-5.7 4.7,-10.3 10.4,-10.3 4.4,0 8,-3.6 8,-8 0,-4.4 -3.6,-8 -8,-8 -14.6,0 -26.4,11.8 -26.4,26.4 0,14.6 11.8,26.4 26.4,26.4 4.4,-0.1 8,-3.6 8,-8.1 z m 391,359.7 c 0,14.6 -11.8,26.4 -26.4,26.4 h -0.6 c -14.6,0 -26.4,-11.8 -26.4,-26.4 0,-14.6 11.8,-26.4 26.4,-26.4 h 0.6 c 14.6,0 26.4,11.8 26.4,26.4 z m -16,0 c 0,-5.7 -4.7,-10.4 -10.4,-10.4 h -0.6 c -5.7,0 -22.17011,2.73831 -22.17011,8.43831 0,5.7 22.17011,12.36169 22.17011,12.36169 l 0.6,16 c 5.7,-0.1 10.4,-20.7 10.4,-26.4 z"
     id="path841"
     sodipodi:nodetypes="sssssssssssssssssssssssssssscssssssssssssscs"
     style="display:none" /><linearGradient
     id="a"
     gradientUnits="userSpaceOnUse"
     x1="291.468"
     y1="448.389"
     x2="291.468"
     y2="98.894"
     class="gradient-element"
     gradientTransform="matrix(1.3012788,0,0,1.2282886,-80.389347,-61.492182)"><stop
       offset="0"
       class="primary-color-gradient"
       style="stop-color:#6366f1"
       id="stop843" /><stop
       offset="1"
       class="secondary-color-gradient"
       style="stop-color:#f59e0b"
       id="stop845" /></linearGradient><path
     fill="url(#a)"
     d="m 482.80411,356.61727 c -51.53064,116.07328 -194.54118,170.85495 -317.25177,121.47775 -20.5602,-8.22953 -39.29862,-18.91565 -55.95499,-31.44419 -18.738411,-14.12532 -17.957644,-41.63898 2.08205,-54.0447 0.78077,-0.49131 1.69166,-0.98263 2.47243,-1.47395 0.52051,0.36849 0.91089,0.73698 1.43141,1.10546 13.40317,10.1948 31.62107,14.12532 45.15437,25.42558 83.67223,69.76679 237.35325,14.37098 278.86405,-79.22462 41.64092,-93.71842 -28.36788,-220.10932 -127.65545,-259.168899 -0.13013,0 -0.26026,-0.122829 -0.39039,-0.122829 -3.77371,-1.473946 -12.75253,7.001245 -11.19099,-2.333748 8.97882,-17.196041 31.36081,-26.899521 52.18128,-18.669987 0.13012,0.122829 0.26025,0.122829 0.52051,0.245657 123.2311,48.394576 181.39826,181.909546 129.73749,298.228476 z m -193.37003,-3.68486 17.6974,8.35236 40.86015,19.28413 -81.98056,-232.14655 c -1.56154,-4.42184 -8.58844,-3.43921 -8.58844,1.35112 v 154.39588 c 0,20.63525 12.36214,39.55089 32.01145,48.76306 z"
     id="path848"
     style="fill:url(#a);stroke-width:1.26426" /><path
     d="M 257.42263,506.1 C 117.14477,506.1 3.1527478,398.37909 3.1527478,266.0924 3.1527478,206.27475 26.705894,148.91367 69.517967,104.57245 109.85761,62.810634 163.99081,35.911113 222.67848,28.295723 V 12.819286 c 0,-5.4044697 4.6846,-9.8263087 10.41023,-9.8263087 h 48.79796 c 5.72562,0 10.41023,4.421839 10.41023,9.8263087 v 15.476437 c 52.05115,6.755587 101.49974,29.110441 139.88747,63.502522 40.5999,36.234515 67.79662,84.751915 76.38506,136.462865 0.9109,5.40447 -2.99294,10.44046 -8.58844,11.30026 -5.72562,0.8598 -11.06087,-2.82507 -11.97176,-8.10671 C 471.35286,132.57743 386.1191,56.66919 280.71552,46.720052 c -5.33525,-0.491315 -9.36921,-4.667496 -9.36921,-9.826309 V 22.645595 h -27.9775 v 14.370977 c 0,5.035984 -4.03396,9.334994 -9.3692,9.826309 C 114.15183,58.143137 23.843081,152.35287 23.843081,266.0924 c 0,121.47775 104.752939,220.35498 233.449419,220.35498 109.95806,0 206.12256,-73.69732 228.50455,-175.27679 1.17116,-5.28164 6.63653,-8.72084 12.36215,-7.61539 5.5955,1.10546 9.23908,6.26428 8.06793,11.66875 -11.71151,53.18489 -42.81207,101.57947 -87.57606,136.34003 C 373.36657,486.69304 316.1103,506.1 257.42263,506.1 Z m 0,-46.06082 c -113.34139,0 -205.471927,-87.08567 -205.471927,-193.94678 0,-106.98394 92.260667,-193.946773 205.471927,-193.946773 51.14025,0 100.19846,17.933014 138.06568,50.482663 37.60695,32.30399 61.1601,76.27672 66.36521,123.68866 0.52052,5.40447 -3.64358,10.1948 -9.23907,10.80894 -5.72563,0.61415 -10.80062,-3.4392 -11.45126,-8.72084 -9.62946,-89.29659 -88.61708,-156.483976 -183.74056,-156.483976 -101.89013,0 -184.651466,78.241986 -184.651466,174.294156 0,96.175 82.891456,174.29416 184.651466,174.29416 92.52092,0 171.24829,-65.22213 183.22005,-151.81648 0.78077,-5.40447 5.98588,-9.21216 11.71151,-8.47519 5.72563,0.73697 9.75959,5.65013 8.97882,11.0546 -13.40317,96.175 -100.97923,168.76686 -203.91038,168.76686 z m 90.43887,-69.64397 c -4.29422,0 -8.45831,-2.57941 -9.88972,-6.75559 L 257.2925,155.30077 184.55101,361.16194 252.60789,329.10361 c 2.99294,-1.35112 6.37627,-1.35112 9.36921,0 l 49.57872,23.46031 c 5.20512,2.45658 7.28716,8.35236 4.68461,13.14269 -2.60256,4.91315 -8.8487,6.87842 -13.92369,4.42184 l -44.89411,-21.37222 -85.88441,40.53352 c -3.7737,1.71961 -8.32818,1.22829 -11.45125,-1.35112 -3.12307,-2.5794 -4.42435,-6.75558 -2.99294,-10.56328 l 90.43888,-256.34384 c 1.4314,-4.05335 5.33524,-6.75558 9.88972,-6.75558 4.55447,0 8.45831,2.70223 9.88971,6.75558 l 90.56901,256.34384 c 1.82179,5.15881 -1.17115,10.68611 -6.63652,12.40572 -1.17115,0.36848 -2.21218,0.61414 -3.38333,0.61414 z"
     id="path850"
     style="stroke-width:1.26426" /></svg>
