<svg xmlns="http://www.w3.org/2000/svg" version="1.1" id="圖層_1" x="0" y="0" viewBox="0 0 100 100" xml:space="preserve"><path d="M50 92.5a3.34 3.34 0 0 1-2.778-1.473c-4.79-7.061-9.248-8.924-15.418-11.502-1.864-.779-3.792-1.584-5.907-2.6-9.297-4.463-12.672-17.359-12.672-24.938a3.359 3.359 0 0 1 5.537-2.555l7.998 6.824a3.357 3.357 0 0 1-.17 5.243c2.586 2.049 7.59 3.883 15.14 3.968 1.734-6.295 2.586-15.053 2.205-22.793-1.537-.311-3.497-.476-5.725-.476-.768 0-1.479.019-2.095.046a4.137 4.137 0 0 1-3.142 1.505c-2.793 0-4.669-2.628-4.669-6.539s1.876-6.539 4.669-6.539c.553 0 2.056.147 3.219 1.598.901.069 2 .126 3.186.126.911 0 1.769-.035 2.562-.102a13.61 13.61 0 0 1-5.649-11.085C36.29 13.65 42.44 7.5 50 7.5s13.71 6.15 13.71 13.71c0 4.394-2.103 8.478-5.591 11.043.598.037 1.227.056 1.882.056 1.021 0 1.988-.045 2.828-.105a4.138 4.138 0 0 1 3.161-1.53c2.793 0 4.67 2.628 4.67 6.539s-1.876 6.539-4.67 6.539a4.13 4.13 0 0 1-3.051-1.404 47.683 47.683 0 0 0-1.973-.042c-2.593 0-4.381.22-5.59.482-.132 7.167 1.031 16.003 2.977 22.644 7.481-.135 12.45-1.938 15.033-3.949a3.358 3.358 0 0 1-.146-5.225l7.998-6.824a3.356 3.356 0 0 1 5.537 2.555c0 7.579-3.375 20.475-12.672 24.938-2.116 1.016-4.043 1.821-5.907 2.6-6.17 2.578-10.628 4.441-15.418 11.502A3.36 3.36 0 0 1 50 92.5zm0-73.249c-1.08 0-1.958.879-1.958 1.958s.878 1.959 1.958 1.959 1.958-.879 1.958-1.958-.878-1.959-1.958-1.959z" fill="#f59e0b"/><path d="M75.42 58.811l3.431-.257c-.341 5.663-9.035 10.617-22.953 10.22-2.839-8.127-4.311-19.908-3.785-28.443 3.582-1.698 10.023-1.443 12.823-1.232.239.783.621 1.294 1.054 1.294.724 0 1.312-1.424 1.312-3.182 0-1.757-.588-3.182-1.312-3.182-.443 0-.834.535-1.072 1.351-2.535.286-8.051.68-12.043-.658.477-2.009 1.157-3.551 2.062-4.416 3.224-1.756 5.416-5.176 5.416-9.097 0-5.708-4.644-10.352-10.352-10.352S39.647 15.502 39.647 21.21c0 3.736 1.99 7.015 4.964 8.836.743.968 1.344 2.651 1.795 4.82-4.268 1.385-10.474.795-12.346.571-.236-.848-.636-1.406-1.088-1.406-.725 0-1.312 1.425-1.312 3.182s.587 3.182 1.312 3.182c.449 0 .845-.548 1.082-1.384 1.989-.164 8.935-.583 13.076 1.112.729 8.691-.137 20.65-2.914 28.673-14.107.504-22.722-4.519-23.066-10.24l3.431.257-7.998-6.824c0 6.313 2.906 18.137 10.767 21.912 9.258 4.443 15.789 5.126 22.65 15.241v-.01.01c6.861-10.115 13.392-10.799 22.65-15.244 7.862-3.774 10.767-15.599 10.767-21.912l-7.997 6.825zM44.684 21.21A5.322 5.322 0 0 1 50 15.894c2.931 0 5.316 2.385 5.316 5.316S52.931 26.526 50 26.526a5.322 5.322 0 0 1-5.316-5.316z" fill="#6366f1"/></svg>