<svg xmlns="http://www.w3.org/2000/svg" viewBox="0 0 30 30"><symbol id="adv_icon_engineering" viewBox="0 0 30 30"><circle cx="15" cy="15" r="15"/><path d="M5.7 22.6c.2-.6.4-1.3.7-1.9.9-2.2 2.6-3.6 4.9-4 .2 0 .4.1.5.2 1.9 1.8 4.4 1.8 6.3 0 .1-.1.4-.2.5-.2 2.4.5 4 1.8 4.9 4 .3.6.5 1.3.7 1.9v.1c-.2 1-.5 1.3-1.6 1.3H7.4c-1.1 0-1.4-.3-1.7-1.4zM15.9 4c.7.3.7.3.7 1v.9c0 .4.3.7.6.7.4 0 .7-.3.7-.6v-.6h.1c.3.4.6.9.8 1.3.2.5.4 1.1.6 1.6 0 .1.2.3.3.3.6.1 1 .5 1 1.1 0 .5-.5.9-1.1.9h-9.2c-.5 0-.8-.2-1-.6-.1-.5-.1-.8.2-1.1.2-.1.4-.3.6-.3.3 0 .4-.2.4-.4.2-1 .6-1.9 1.3-2.7l.2-.2V6c0 .4.3.7.7.7.4 0 .6-.3.6-.7V4.8c0-.4.1-.6.5-.6l.2-.2h.2v2.8c0 .4.3.6.7.6.3 0 .6-.2.6-.6V4h.3z" style="fill: #f59e0b;"/><path d="M19.2 11.8c-.1 1.9-.7 3.6-2.3 4.8-1.2.8-2.6.8-3.8 0-1.6-1.2-2.1-2.8-2.3-4.7 2.8-.1 5.6-.1 8.4-.1z" style="fill: #f59e0b;"/></symbol><use xmlns:xlink="http://www.w3.org/1999/xlink" xlink:href="#adv_icon_engineering"/></svg>