<?xml version="1.0" encoding="UTF-8" standalone="no"?>
<!-- Created with Inkscape (http://www.inkscape.org/) -->

<svg
   width="158.81577mm"
   height="158.8432mm"
   viewBox="0 0 158.81577 158.8432"
   version="1.1"
   id="svg932"
   inkscape:version="1.1.1 (3bf5ae0d25, 2021-09-20)"
   sodipodi:docname="anchor.svg"
   xmlns:inkscape="http://www.inkscape.org/namespaces/inkscape"
   xmlns:sodipodi="http://sodipodi.sourceforge.net/DTD/sodipodi-0.dtd"
   xmlns="http://www.w3.org/2000/svg"
   xmlns:svg="http://www.w3.org/2000/svg">
  <sodipodi:namedview
     id="namedview934"
     pagecolor="#ffffff"
     bordercolor="#666666"
     borderopacity="1.0"
     inkscape:pageshadow="2"
     inkscape:pageopacity="0.0"
     inkscape:pagecheckerboard="0"
     inkscape:document-units="mm"
     showgrid="false"
     inkscape:zoom="0.72337262"
     inkscape:cx="463.10849"
     inkscape:cy="281.32113"
     inkscape:window-width="1920"
     inkscape:window-height="1001"
     inkscape:window-x="2391"
     inkscape:window-y="-9"
     inkscape:window-maximized="1"
     inkscape:current-layer="layer1" />
  <defs
     id="defs929" />
  <g
     inkscape:label="Layer 1"
     inkscape:groupmode="layer"
     id="layer1"
     transform="translate(17.594117,-36.525837)">
    <path
       d="m 139.00201,112.67608 c -2.32198,-1.05283 -6.31543,0.13367 -8.72172,0.4341 l -5.49699,0.70142 c -1.90443,0.23427 -2.13871,-0.28387 -3.7592,-0.70142 -1.18649,-0.30042 -4.24285,0.28387 -5.31248,-0.31695 -1.06934,-0.6022 -0.86815,-1.93891 -1.06934,-3.60892 -1.20163,-9.26853 -4.826,-18.056577 -10.50748,-25.478669 -0.4341,-0.58427 -1.67019,-1.5875 -1.77077,-2.255837 -0.36795,-1.402856 -0.13367,-0.117133 0.38446,-1.369766 0.51816,-1.252643 1.93752,-1.887925 2.53971,-2.873198 0.60082,-0.985309 0.65183,-1.954072 1.25265,-2.840144 h -0.001 c 1.18512,-1.225091 2.54109,-2.271007 4.0266,-3.107478 2.20486,-1.670191 14.06702,-10.324394 5.81378,-12.212108 -5.01191,-1.135521 -9.03852,8.353778 -11.61133,11.142839 -1.15341,1.269188 -1.95407,1.269188 -3.24114,2.021593 -1.2857,0.752404 -2.488745,3.090933 -3.891496,3.559527 -1.402856,0.467149 -5.596113,-3.475425 -7.333897,-4.577997 h -0.0014 C 85.21843,68.0222 79.64701,65.714081 73.811008,64.359414 c -1.820404,-0.434093 -3.675239,-0.76895 -5.530145,-1.019739 -2.138715,-0.300412 -2.372995,0.117132 -2.97381,-1.787314 -0.48507,-1.503433 -0.217731,-3.341758 -0.618737,-4.828822 l 0.0014,0.0014 c -0.508494,-1.095551 -0.698677,-2.310976 -0.551216,-3.50848 0.775829,-3.810353 1.233347,-7.67715 1.369766,-11.561586 -0.133671,-3.057878 -1.186498,-3.341758 -3.241146,-5.129036 -6.799086,0 -3.257691,12.596636 -2.605863,16.271874 0.434093,2.472196 -0.53467,5.496984 -1.05283,8.102953 -0.434093,2.138715 0,2.054648 -2.321984,2.338528 -1.453833,0.183279 -2.907665,0.401003 -4.327172,0.684883 l -0.0014,0.0014 c -8.284633,1.606797 -16.074672,5.144206 -22.737586,10.324395 -0.434093,0.333484 -1.236098,1.269188 -1.670191,1.420742 -1.35322,0.384457 -0.31695,0.133671 -1.670191,-0.401003 -1.35322,-0.53467 -2.038103,-2.054648 -3.208091,-2.706476 -0.802005,-0.321084 -1.581996,-0.68901 -2.339904,-1.10243 -3.942644,-2.65684 -7.066491,-13.883569 -12.9811635,-12.212108 -5.9146721,1.670191 0.2508038,7.635874 2.6224088,9.505597 2.3729947,1.87138 5.8303587,3.675238 7.6852637,6.148916 0.851641,1.135521 0.935672,2.255838 2.005048,3.45888 1.069375,1.203043 2.12217,1.920981 1.887925,3.173624 -0.234265,1.252644 -2.756076,3.508481 -3.424414,4.493684 -0.668337,0.985308 -1.519978,2.321983 -2.221406,3.525026 -1.492426,2.576936 -2.760204,5.276497 -3.793772,8.06838 -1.116224,3.053718 -1.954071,6.202538 -2.5052866,9.406468 -0.1116224,1.43041 -0.3073012,2.85253 -0.5842706,4.25944 -0.5677605,1.90443 -0.8516408,1.48689 -2.990356,1.67019 l -0.00138,0.001 c -1.7004947,0.26734 -3.377565,0.67525 -5.0119138,1.21955 -1.55303359,-0.0179 -3.0964363,-0.23702 -4.5942249,-0.65182 -3.090933,-0.41755 -7.2001941,-1.67019 -10.2746521,-1.00182 -2.45565,0.46715 -4.678538,2.79054 -3.341758,5.22958 1.336711,2.43914 4.678539,2.17177 7.000522,1.87138 v -0.001 c 3.2563148,-0.67388 6.5472023,-1.16445 9.85696329,-1.47038 1.07763026,0.0965 2.12908441,0.37895 3.10747831,0.83509 1.5199783,0.40101 4.0100249,-0.28387 5.3798609,0.48507 1.3697656,0.76895 1.6701911,7.04991 2.1056605,9.15564 0.639409,2.67477 1.488299,5.29449 2.539717,7.83555 1.231971,2.95864 2.731276,5.79896 4.477103,8.48748 0.891575,1.36977 1.83829,2.70094 2.840143,3.99345 1.30362,1.67019 1.83829,1.55441 0.81855,3.34175 -2.823598,4.74451 -6.315427,7.4676 -10.67576,10.91001 -2.1056604,1.67019 -6.1654975,4.0266 -5.4130225,7.1508 0.9356724,3.89291 4.878211,2.88975 6.9673615,0.81855 l -0.0014,-0.001 c 2.169019,-2.35782 4.16313,-4.87009 5.964061,-7.5184 0.702803,-1.19062 1.568203,-2.27513 2.572808,-3.2246 0.868151,-0.60081 2.054648,-0.71797 2.990356,-1.43728 0.935673,-0.71798 2.40605,-3.02342 3.542947,-3.02342 0.651828,0 2.739531,2.20487 3.341758,2.65684 h -0.0014 c 2.417093,1.78869 4.975931,3.37482 7.652103,4.74451 5.563305,2.83323 11.589455,4.64397 17.793406,5.3467 2.472196,0.28388 2.840143,0 3.023411,2.53972 v -10e-4 c 0.151585,1.60129 0.403754,3.19154 0.752405,4.7625 0.600815,3.15708 -0.351399,6.68196 -0.752405,10.02383 -0.316949,2.68993 -1.30362,6.58283 1.135521,8.50371 h 0.0014 c 0.824054,0.7221 1.951285,0.99493 3.013781,0.7276 1.063837,-0.26734 1.929271,-1.03766 2.315104,-2.06432 1.287074,-2.58931 0,-7.00052 -0.351398,-9.73984 -0.362409,-1.70324 -0.618737,-3.42716 -0.767574,-5.16219 0,-1.77077 0.886072,-2.18832 1.219552,-3.7592 0.217731,-1.13552 -0.85164,-4.56142 0.267339,-5.51357 0.618737,-0.53467 3.574697,-0.33348 4.460875,-0.4506 3.101975,-0.45477 6.155619,-1.19338 9.121069,-2.20624 3.140534,-1.079 6.170789,-2.44877 9.0551,-4.09293 2.68993,-1.51997 5.011914,-3.85974 7.769225,-5.27931 1.954071,-1.01974 1.988502,0 3.742619,1.40285 1.074874,0.70418 2.191064,1.34634 3.340384,1.92098 2.52317,1.67019 4.51026,5.31248 6.41491,7.76923 1.5875,2.05465 3.60891,5.41302 6.68196,5.01191 3.34176,-0.41755 3.42441,-3.59269 1.97196,-5.86352 -1.85484,-2.88974 -5.37986,-4.87821 -8.10295,-6.85024 h 10e-4 c -2.17318,-1.64401 -3.98251,-3.72074 -5.31248,-6.09776 -1.00182,-1.43729 -2.72302,-2.48874 -2.30548,-3.94265 0.33349,-1.18649 2.4722,-3.02341 3.17363,-4.0266 1.67432,-2.3399 3.13778,-4.82177 4.37656,-7.41786 1.55582,-3.23564 2.79192,-6.61599 3.69323,-10.09121 0.56776,-2.23932 0.70143,-8.48748 2.2214,-9.4562 1.00182,-0.63529 4.52826,-0.41755 5.61411,-0.65183 1.08038,-0.34038 2.20761,-0.514 3.34038,-0.51675 3.09094,0.13367 6.18173,0.93567 9.25619,1.35322 2.50666,0.33348 4.84505,0.58427 6.48229,-1.67019 v -0.001 c 0.65733,-0.84611 0.86815,-1.95683 0.56638,-2.9862 -0.30041,-1.02803 -1.07763,-1.8507 -2.08636,-2.20899 z M 17.191376,97.856595 c -0.110243,0.282497 -0.381706,0.468524 -0.684883,0.468524 -0.08819,0.01654 -0.179144,0.01654 -0.267338,0 -0.384457,-0.150206 -0.551216,-0.952218 -0.401003,-1.320165 2.487366,-5.767211 6.106231,-10.977386 10.6426,-15.321139 4.674305,-4.98863 10.320161,-8.968316 16.59008,-11.693877 5.97782,-2.317856 12.350043,-3.453377 18.760721,-3.341758 6.453364,-0.132292 12.872155,0.967387 18.912063,3.241146 0.384458,0.150205 0.551216,0.952217 0.401003,1.320164 -0.150206,0.367948 -0.952218,0.183279 -1.320165,0 C 75.914971,69.638536 72.272893,69.706057 68.280507,69.204443 54.085436,67.12637 39.728792,71.741409 29.404398,81.700537 24.71069,86.261953 19.781678,91.441789 17.19229,97.8567 Z M 59.792818,147.7429 c -0.21773,1.01974 -1.453832,6.08118 -2.239327,6.58283 -1.33671,0.85164 -7.200193,-1.43728 -8.687151,-1.95407 h 0.0014 c -2.328897,-0.80476 -4.568119,-1.84658 -6.683375,-3.10748 -0.600815,-0.3514 -3.541536,-1.90443 -3.77578,-2.57281 -0.234266,-0.66833 1.503433,-3.19154 1.770768,-3.7592 0.872314,-2.27238 2.379874,-4.24426 4.3434,-5.68042 2.706476,-1.78732 3.625497,-1.30362 6.38175,0 h 0.0014 c 2.310976,1.23334 4.821765,2.04777 7.417857,2.40467 1.438663,2.4336 1.959574,5.3026 1.469002,8.08637 z m 2.021593,-15.16945 c -9.707032,0.58428 -17.558806,-9.08826 -16.539279,-18.3776 0.434093,-4.31729 2.530087,-8.29733 5.845528,-11.09592 3.316922,-2.7988 7.591777,-4.197349 11.920007,-3.901369 4.328583,0.297657 8.372828,2.266879 11.27513,5.491339 2.903538,3.22598 4.437239,7.45384 4.277431,11.79054 -0.158475,4.33528 -1.999545,8.43915 -5.130447,11.4434 -3.132279,3.00412 -7.309203,4.67149 -11.648722,4.64961 z m 21.719117,15.03575 c -4.368447,3.0675 -9.359547,5.13185 -14.618406,6.04837 -2.15526,0.43409 -1.670191,0.38446 -2.622408,-1.00182 -0.689011,-1.27744 -1.194753,-2.64308 -1.504809,-4.05976 -0.968763,-3.25769 -0.117133,-5.74781 0.886072,-8.87166 2.847022,-0.51953 5.589411,-1.50206 8.119533,-2.90766 1.770768,-1.00182 1.670191,-1.48689 3.592689,-1.10243 1.186497,0.4065 2.282048,1.04316 3.223224,1.87138 1.610925,1.49793 2.856689,3.34313 3.642078,5.39644 1.320165,2.52317 1.905811,2.73953 -0.584271,4.62738 z m 11.193638,-11.97928 c -0.333484,0.55122 -1.770768,3.59269 -2.523172,3.7592 -1.400105,-0.44923 -2.745035,-1.0542 -4.008614,-1.80386 -1.994006,-0.87506 -3.722158,-2.25721 -5.011914,-4.01002 -1.92098,-2.774 -1.35322,-3.67524 0,-6.48229 0.538798,-1.04179 1.007357,-2.11942 1.402856,-3.22323 0.242535,-1.42903 0.593937,-2.83601 1.05283,-4.21146 3.124024,-3.87632 10.743142,-0.401 14.317839,0.63528 -0.537422,5.43349 -2.277886,10.67859 -5.095875,15.35395 z m 3.842103,-24.04004 -1.486888,0.55122 c -2.377122,1.1231 -5.027083,1.54065 -7.634463,1.20304 -3.926064,-0.73448 -3.625498,-1.90444 -4.812242,-5.213 -2.973811,-7.2651 -8.9916,-12.854515 -16.456377,-15.286565 -3.930298,-0.983932 -8.03522,-1.047327 -11.994445,-0.183279 -3.081301,0.74415 -5.975348,2.115291 -8.503707,4.025195 -1.984375,1.645391 -3.80753,3.475429 -5.447241,5.463819 -1.178207,1.97475 -2.204861,4.03507 -3.073012,6.16409 -1.5875,3.45888 -0.81855,12.83088 -0.31695,14.45154 0.701428,2.25584 2.92421,4.81224 3.341758,6.96736 1.01974,5.41302 -6.782858,8.55345 -10.609438,10.52548 -3.563761,-4.22628 -6.118578,-9.20821 -7.469011,-14.56866 -0.463021,-1.2058 -0.706932,-2.48462 -0.717974,-3.77579 0.300412,-1.67019 0,-0.90261 1.670191,-1.51997 2.363329,-1.01424 4.863042,-1.67295 7.417859,-1.95545 1.116224,0.10335 2.200733,0.42718 3.191545,0.95222 1.06934,0.36794 0.51816,-6.26463 0,-5.88151 -3.942645,3.19154 -8.053211,-1.6702 -12.7635,-1.16996 l -0.0014,0.001 c 0.705556,-7.48947 3.540126,-14.619459 8.170334,-20.5493 1.954071,2.188316 4.878211,2.422595 7.066491,4.176889 3.224601,2.589318 5.647267,-0.618737 2.756077,-4.010025 h 0.0014 c -0.600815,-1.033533 -1.110685,-2.118043 -1.521354,-3.241146 -0.150205,-0.250804 -2.255837,-2.706476 -2.255837,-2.807053 0,-1.554409 5.764389,-4.160308 6.89998,-4.727928 l 0.0014,0.0014 c 2.138715,-1.080382 4.376561,-1.952696 6.681964,-2.60724 1.036285,-0.300411 5.480401,-1.954071 6.681963,-1.135521 0,0 0.701428,3.876322 0.768949,4.076347 0.598064,1.296741 1.079006,2.644458 1.437287,4.026606 0.111623,1.434535 -0.06477,2.877326 -0.51816,4.242858 -0.300411,1.036285 5.764389,0.902617 5.530145,0.51816 -0.638034,-1.364262 -0.853017,-2.888368 -0.618737,-4.376561 0,-1.186498 1.203043,-7.502172 2.305473,-8.353778 1.102431,-0.85164 5.379861,0.651828 6.465711,0.985309 4.765322,1.276067 9.165167,3.651955 12.847461,6.934199 -1.670191,3.191546 -2.756076,8.754534 -6.681964,10.190692 -0.551215,0.133671 2.94072,4.026605 3.107478,3.642078 1.5875,-3.842103 6.815667,-5.696656 10.12437,-7.350478 3.31417,4.169833 5.700888,9.000072 7.000522,14.166142 0.429965,1.10656 0.678003,2.27376 0.734483,3.45888 0.68488,1.25265 0.2508,1.98851 -1.320165,1.98851 z"
       id="path832"
       style="stroke-width:0.352778" />
  </g>
</svg>
