<!--?xml version="1.0" encoding="UTF-8" standalone="no"?-->
<svg viewBox="0 0 512 512" xml:space="preserve" version="1.1" id="svg852" sodipodi:docname="North.svg" inkscape:version="1.1.1 (3bf5ae0d25, 2021-09-20)" xmlns:inkscape="http://www.inkscape.org/namespaces/inkscape" xmlns:sodipodi="http://sodipodi.sourceforge.net/DTD/sodipodi-0.dtd" xmlns="http://www.w3.org/2000/svg" xmlns:svg="http://www.w3.org/2000/svg" width="512" height="512"><defs id="defs856"></defs><sodipodi:namedview id="namedview854" pagecolor="#ffffff" bordercolor="#666666" borderopacity="1.0" inkscape:pageshadow="2" inkscape:pageopacity="0.0" inkscape:pagecheckerboard="0" showgrid="false" inkscape:zoom="1.5292969" inkscape:cx="255.67305" inkscape:cy="256" inkscape:window-width="1920" inkscape:window-height="1001" inkscape:window-x="2391" inkscape:window-y="-9" inkscape:window-maximized="1" inkscape:current-layer="svg852"></sodipodi:namedview><path d="m 115.5,481.5 c 0,4.4 -3.6,8 -8,8 h -43 c -4.4,0 -8,-3.6 -8,-8 0,-4.4 3.6,-8 8,-8 h 43 c 4.4,0 8,3.6 8,8 z M 412.5,58 h 43 c 4.4,0 8,-3.6 8,-8 0,-4.4 -3.6,-8 -8,-8 h -43 c -4.4,0 -8,3.6 -8,8 0,4.4 3.6,8 8,8 z m 51,26 c 0,-4.4 -3.6,-8 -8,-8 h -67 c -4.4,0 -8,3.6 -8,8 0,4.4 3.6,8 8,8 h 67 c 4.4,0 8,-3.6 8,-8 z M 79.2,108.7 c 0,-4.4 -3.6,-8 -8,-8 -5.7,0 -10.4,-4.7 -10.4,-10.4 0,-5.7 4.7,-10.3 10.4,-10.3 4.4,0 8,-3.6 8,-8 0,-4.4 -3.6,-8 -8,-8 -14.6,0 -26.4,11.8 -26.4,26.4 0,14.6 11.8,26.4 26.4,26.4 4.4,-0.1 8,-3.6 8,-8.1 z m 391,359.7 c 0,14.6 -11.8,26.4 -26.4,26.4 h -0.6 c -14.6,0 -26.4,-11.8 -26.4,-26.4 0,-14.6 11.8,-26.4 26.4,-26.4 h 0.6 c 14.6,0 26.4,11.8 26.4,26.4 z m -16,0 c 0,-5.7 -4.7,-10.4 -10.4,-10.4 h -0.6 c -5.7,0 -22.17011,2.73831 -22.17011,8.43831 0,5.7 22.17011,12.36169 22.17011,12.36169 l 0.6,16 c 5.7,-0.1 10.4,-20.7 10.4,-26.4 z" id="path841" sodipodi:nodetypes="sssssssssssssssssssssssssssscssssssssssssscs" style="display: none;" class="svg-1"></path><linearGradient id="a" gradientUnits="userSpaceOnUse" x1="291.468" y1="448.389" x2="291.468" y2="98.894" class="gradient-element" gradientTransform="translate(56,44)"><stop offset="0" class="primary-color-gradient" style="stop-color:#6366f1" id="stop843"></stop><stop offset="1" class="secondary-color-gradient" style="stop-color:#f59e0b" id="stop845"></stop></linearGradient><path fill="url(#a)" d="m 488.8,384.4 c -39.6,94.5 -149.5,139.1 -243.8,98.9 -15.8,-6.7 -30.2,-15.4 -43,-25.6 -14.4,-11.5 -13.8,-33.9 1.6,-44 0.6,-0.4 1.3,-0.8 1.9,-1.2 0.4,0.3 0.7,0.6 1.1,0.9 10.3,8.3 24.3,11.5 34.7,20.7 64.3,56.8 182.4,11.7 214.3,-64.5 32,-76.3 -21.8,-179.2 -98.1,-211 -0.1,0 -0.2,-0.1 -0.3,-0.1 -2.9,-1.2 -9.8,5.7 -8.6,-1.9 6.9,-14 24.1,-21.9 40.1,-15.2 0.1,0.1 0.2,0.1 0.4,0.2 94.7,39.4 139.4,148.1 99.7,242.8 z m -148.6,-3 13.6,6.8 31.4,15.7 -63,-189 c -1.2,-3.6 -6.6,-2.8 -6.6,1.1 v 125.7 c 0,16.8 9.5,32.2 24.6,39.7 z" id="path848" style="fill: url(&quot;#a&quot;);" class="svg-2"></path><path d="m 315.6,506.1 c -107.8,0 -195.4,-87.7 -195.4,-195.4 0,-48.7 18.1,-95.4 51,-131.5 31,-34 72.6,-55.9 117.7,-62.1 v -12.6 c 0,-4.4 3.6,-8 8,-8 h 37.5 c 4.4,0 8,3.6 8,8 v 12.6 c 40,5.5 78,23.7 107.5,51.7 31.2,29.5 52.1,69 58.7,111.1 0.7,4.4 -2.3,8.5 -6.6,9.2 -4.4,0.7 -8.5,-2.3 -9.2,-6.6 C 480,202 414.5,140.2 333.5,132.1 c -4.1,-0.4 -7.2,-3.8 -7.2,-8 v -11.6 h -21.5 v 11.7 c 0,4.1 -3.1,7.6 -7.2,8 -92.1,9.2 -161.5,85.9 -161.5,178.5 0,98.9 80.5,179.4 179.4,179.4 84.5,0 158.4,-60 175.6,-142.7 0.9,-4.3 5.1,-7.1 9.5,-6.2 4.3,0.9 7.1,5.1 6.2,9.5 -9,43.3 -32.9,82.7 -67.3,111 -34.8,28.6 -78.8,44.4 -123.9,44.4 z m 0,-37.5 c -87.1,0 -157.9,-70.9 -157.9,-157.9 0,-87.1 70.9,-157.9 157.9,-157.9 39.3,0 77,14.6 106.1,41.1 28.9,26.3 47,62.1 51,100.7 0.4,4.4 -2.8,8.3 -7.1,8.8 -4.4,0.5 -8.3,-2.8 -8.8,-7.1 -7.4,-72.7 -68.1,-127.4 -141.2,-127.4 -78.3,0 -141.9,63.7 -141.9,141.9 0,78.3 63.7,141.9 141.9,141.9 71.1,0 131.6,-53.1 140.8,-123.6 0.6,-4.4 4.6,-7.5 9,-6.9 4.4,0.6 7.5,4.6 6.9,9 -10.3,78.3 -77.6,137.4 -156.7,137.4 z m 69.5,-56.7 c -3.3,0 -6.5,-2.1 -7.6,-5.5 l -62,-185.9 -55.9,167.6 52.3,-26.1 c 2.3,-1.1 4.9,-1.1 7.2,0 l 38.1,19.1 c 4,2 5.6,6.8 3.6,10.7 -2,4 -6.8,5.6 -10.7,3.6 l -34.5,-17.4 -66,33 c -2.9,1.4 -6.4,1 -8.8,-1.1 -2.4,-2.1 -3.4,-5.5 -2.3,-8.6 L 308,192.6 c 1.1,-3.3 4.1,-5.5 7.6,-5.5 3.5,0 6.5,2.2 7.6,5.5 l 69.6,208.7 c 1.4,4.2 -0.9,8.7 -5.1,10.1 -0.9,0.3 -1.7,0.5 -2.6,0.5 z" id="path850" class="svg-3"></path></svg>
