<?xml version="1.0" encoding="UTF-8" standalone="no"?>
<svg
   width="415.5918pt"
   height="320.77582pt"
   version="1.1"
   viewBox="0 0 415.5918 320.77582"
   id="svg1108"
   sodipodi:docname="sailor.svg"
   inkscape:version="1.1.1 (3bf5ae0d25, 2021-09-20)"
   xmlns:inkscape="http://www.inkscape.org/namespaces/inkscape"
   xmlns:sodipodi="http://sodipodi.sourceforge.net/DTD/sodipodi-0.dtd"
   xmlns="http://www.w3.org/2000/svg"
   xmlns:svg="http://www.w3.org/2000/svg">
  <defs
     id="defs1112" />
  <sodipodi:namedview
     id="namedview1110"
     pagecolor="#ffffff"
     bordercolor="#666666"
     borderopacity="1.0"
     inkscape:pageshadow="2"
     inkscape:pageopacity="0.0"
     inkscape:pagecheckerboard="0"
     inkscape:document-units="pt"
     showgrid="false"
     inkscape:zoom="24.989362"
     inkscape:cx="221.85441"
     inkscape:cy="467.85909"
     inkscape:window-width="2400"
     inkscape:window-height="1271"
     inkscape:window-x="-9"
     inkscape:window-y="4"
     inkscape:window-maximized="1"
     inkscape:current-layer="svg1108" />
  <path
     d="m 272.18948,201.4565 c -0.36776,-0.31641 -0.72786,-0.58984 -1.13388,-0.83984 -20.51819,-15.57 -48.04249,-27.922 -79.73966,-33.48 20.70157,-12.742 34.61965,-35.836 34.61965,-62.242 0,-5.8828 -0.74701,-11.637 -2.08781,-17.242 l 14.01714,33.312 c 1.50556,3.5938 4.93409,5.7422 8.53512,5.7422 1.22587,0 2.46704,-0.25 3.66614,-0.77344 4.70815,-2.0625 6.8955,-7.6328 4.8729,-12.438 l -11.41239,-27.133 26.60538,-11.641 c 4.71579,-2.0625 6.89549,-7.6328 4.8729,-12.441 -2.03034,-4.8086 -7.49313,-7.0312 -12.20088,-4.9688 l -28.50107,12.473 18.4038,-17.918 c 3.47461,-3.3789 3.8462,-8.9023 0.86194,-12.738 -1.13388,-1.4609 -28.6472,-35.785 -98.82504,-35.785 -70.18079,0 -97.68646,34.324 -98.82505,35.785 -2.98044,3.8398 -2.60885,9.3555 0.86577,12.738 l 30.33302,29.535 c -2.52451,7.5273 -3.8308,15.395 -3.8308,23.488 0,26.434 13.94456,49.543 34.68046,62.277 -31.3706,5.5352 -58.63502,17.719 -79.0571,33.086 -0.91557,0.46094 -1.72004,1.0625 -2.45939,1.8242 C 13.63761,220.00282 0,241.82682 0,262.20582 c 0,51.473 74.3723,58.57 154.74451,58.57 80.37221,0 154.74451,-7.0938 154.74451,-58.57 -0.008,-20.613 -13.99752,-42.707 -37.30482,-60.75 z m -177.83016,-8.6367 33.29375,57.363 -67.24653,-41.801 c 10.01391,-6.0586 21.48319,-11.352 33.95278,-15.562 z m 95.02778,6.6836 c -0.59379,-0.12109 -1.14163,-0.36328 -1.76987,-0.36328 h -66.01674 c -0.62826,0 -1.17988,0.24219 -1.77369,0.36328 l -6.92619,-11.93 c 13.27769,-3.0156 27.33699,-4.7773 41.84055,-4.7773 14.41529,0 28.3981,1.7344 41.60714,4.7188 z m -10.77985,18.578 -23.99672,41.348 -24.00065,-41.348 z m 36.29371,-25.332 c 12.49999,4.2031 23.99281,9.4922 34.0332,15.559 l -67.3652,41.875 z M 99.914,67.6794 97.90661,65.7224 c 9.46982,-4.457 27.83125,-10.52 57.02961,-9.8281 28.8806,-0.55078 47.16966,5.4648 56.61576,9.8594 l -1.9767,1.9258 c -8.61946,-2.9219 -26.02677,-7.0938 -54.83089,-6.7656 -28.6776,-0.24609 -46.21152,3.8477 -54.83088,6.7656 z m 54.83088,-45.383 c 43.69897,0 67.76435,14.34 78.09601,22.73 l -7.09094,6.9023 c -9.60016,-5.5898 -32.30913,-15.641 -70.81726,-14.977 -38.82196,-0.74609 -61.59967,9.3516 -71.20366,14.969 L 76.65731,45.034 c 10.33951,-8.3789 34.44313,-22.738 78.08816,-22.738 z m -52.88125,82.602 c 0,-6.6055 1.2144,-12.984 3.47462,-19.051 6.40514,-2.1992 22.15006,-6.3359 49.28797,-5.9922 h 0.23751 c 26.78878,-0.41797 42.44564,3.6484 48.97415,5.8711 2.29464,6.1094 3.52827,12.531 3.52827,19.176 0,29.66 -23.66329,53.785 -52.7469,53.785 -29.09146,0 -52.75475,-24.129 -52.75475,-53.789 z m 52.88125,196.95 c -63.39729,0 -136.17006,-4.5039 -136.17006,-39.625 0,-13.812 9.45453,-28.789 25.19906,-41.992 l 106.00376,65.891 c 0.0345,0.0195 0.0728,0.0273 0.10727,0.0469 0.55548,0.33594 1.15693,0.57422 1.77369,0.78906 0.17239,0.0586 0.32946,0.16406 0.50567,0.21094 0.78916,0.21875 1.60894,0.33984 2.44792,0.33984 0.83896,0 1.65876,-0.12109 2.44793,-0.33984 0.17239,-0.0469 0.32945,-0.15234 0.50184,-0.21094 0.61677,-0.21094 1.22205,-0.45312 1.77752,-0.78906 0.0345,-0.0195 0.0728,-0.0273 0.10727,-0.0469 l 106.15086,-65.984 c 15.81378,13.227 25.31773,28.234 25.31773,42.082 0.004,35.125 -72.76297,39.629 -136.17006,39.629 z m 260.84634,-161.77 c 0,-5.2305 -4.1565,-9.4727 -9.28987,-9.4727 -5.13337,0 -9.28986,4.2422 -9.28986,9.4727 0,15.773 -19.41883,29.34 -44.11969,32.125 v -82.75 h 23.80156 c 5.13337,0 9.28987,-4.2422 9.28987,-9.4727 0,-5.2305 -4.1565,-9.4727 -9.28987,-9.4727 H 352.8918 V 58.422 C 364.57977,54.4298 373.07654,43.289 373.07654,30.047 373.07654,13.481 359.85966,0 343.60556,0 c -16.25411,0 -29.47099,13.48 -29.47099,30.047 0,13.242 8.49687,24.383 20.18475,28.375 v 12.086 h -23.80157 c -5.13337,0 -9.28987,4.2422 -9.28987,9.4727 0,5.2305 4.1565,9.4727 9.28987,9.4727 h 23.80157 v 82.75 c -24.70479,-2.7812 -44.11969,-16.352 -44.11969,-32.125 0,-5.2305 -4.1565,-9.4727 -9.28987,-9.4727 -5.13337,0 -9.28987,4.2422 -9.28987,9.4727 0,26.68 26.88489,47.98 62.70002,51.16 v 11.277 c 0,5.2344 4.15649,9.4727 9.28986,9.4727 5.13337,0 9.28987,-4.2383 9.28987,-9.4727 v -11.277 c 35.80729,-3.1797 62.69217,-24.48 62.69217,-51.16 z m -71.98527,-121.14 c 6.00678,0 10.89458,4.9805 10.89458,11.105 0,6.1245 -4.88819,11.109 -10.89458,11.109 -6.00639,0 -10.89459,-4.9844 -10.89459,-11.109 0,-6.1246 4.8882,-11.105 10.89459,-11.105 z"
     id="path1106"
     style="stroke-width:0.990303" />
  <path
     style="fill:#6dd18e;fill-rule:evenodd;stroke-width:19.3594"
     d="M 169.03193,426.30863 C 89.483978,424.19801 42.882306,413.12049 18.806964,390.59919 7.0128096,379.56633 2.2166391,369.411 1.5204691,353.99704 0.84486141,339.03835 2.7510397,330.24844 9.6461585,316.52727 20.187914,295.54936 37.103963,277.72468 62.762005,260.55835 85.4059,245.40862 119.05056,231.4342 146.46895,225.79041 c 6.07094,-1.24964 11.03807,-2.58837 11.03807,-2.97495 0,-0.38659 -3.55557,-3.28205 -7.90126,-6.43436 -15.29601,-11.0955 -28.74813,-31.32168 -34.52024,-51.90354 -3.62818,-12.93716 -3.92532,-34.02616 -0.66576,-47.25151 l 2.1954,-8.90763 -21.812051,-21.8388 C 73.959041,65.609992 72.99106,64.416891 72.99106,59.594819 c 0,-4.483033 0.856572,-5.878996 7.677601,-12.512245 19.007127,-18.483871 49.817199,-32.587286 84.521629,-38.6900647 16.7476,-2.9450667 48.61602,-3.9487564 65.94807,-2.0770214 41.94545,4.5298041 76.83507,18.4238611 99.74583,39.7216701 7.64965,7.111115 10.255,12.550105 8.43477,17.608701 -0.70904,1.970512 -7.18802,9.146872 -14.39772,15.947466 -7.20971,6.800593 -12.77128,12.708234 -12.35906,13.12809 0.41222,0.419856 10.14818,-3.338213 21.63546,-8.351264 l 20.88597,-9.114635 4.36636,2.082175 c 2.78822,1.32961 5.0485,3.714739 6.25367,6.59911 1.67773,4.015402 1.66509,4.985192 -0.11397,8.734164 -2.16641,4.565386 -3.2421,5.187918 -26.24532,15.188935 -8.09944,3.52137 -14.90694,6.56506 -15.12777,6.76376 -0.22083,0.1987 3.42077,9.44174 8.09245,20.5401 9.12915,21.68781 9.41939,23.91725 3.84009,29.49654 -3.58678,3.58678 -10.12442,4.12564 -14.32849,1.18099 -1.67649,-1.17426 -6.56997,-11.02538 -12.70263,-25.57178 -5.48659,-13.01394 -10.18581,-23.45149 -10.44274,-23.19456 -0.25693,0.25692 0.19428,5.28147 1.0027,11.16566 4.44189,32.33081 -11.09061,69.3837 -36.9483,88.14049 -4.3457,3.15231 -7.90127,6.04777 -7.90127,6.43436 0,0.38658 5.04214,1.72995 11.20477,2.98527 45.77943,9.32521 95.98099,36.91437 120.61492,66.28606 40.5273,48.3218 31.78357,94.81919 -21.87056,116.30334 -36.24996,14.51521 -100.91494,20.43463 -195.74559,17.9185 z m 110.76713,-25.49986 c 61.60452,-5.24912 95.80203,-17.44149 105.58125,-37.64267 5.52175,-11.40643 2.58875,-29.4799 -7.18265,-44.26031 -6.44587,-9.75013 -22.29345,-25.94294 -24.73529,-25.27413 -1.07403,0.2942 -32.61236,19.60373 -70.08519,42.91009 -37.47282,23.30637 -69.94867,43.31446 -72.16857,44.4624 -2.21989,1.14796 -5.34799,1.75795 -6.95132,1.35554 -1.60335,-0.40241 -34.5249,-20.40067 -73.15905,-44.44058 -38.634124,-24.0399 -71.014969,-44.00482 -71.957423,-44.36648 -2.036042,-0.7813 -12.27825,8.92398 -20.257342,19.19538 -13.324998,17.15313 -17.843984,35.75915 -11.990105,49.36686 9.992082,23.22723 51.051305,36.16243 126.80877,39.94955 26.90154,1.34481 104.66546,0.57044 126.09692,-1.25565 z m -57.11031,-81.78765 c 8.52093,-14.70187 15.4926,-27.09221 15.4926,-27.53406 0,-0.44185 -14.40613,-0.80336 -32.01362,-0.80336 -17.60749,0 -32.01362,0.35066 -32.01362,0.77926 0,1.75322 31.43811,55.21529 32.20769,54.77077 0.45888,-0.26506 7.80601,-12.51073 16.32695,-27.21261 z m -54.07628,10.51806 c -1.8522,-3.56988 -41.8086,-72.50224 -42.3655,-73.08851 -0.67898,-0.7148 -21.71424,8.04573 -33.760521,14.06021 -10.428233,5.20661 -12.819548,6.88926 -11.524904,8.10953 2.586905,2.43828 88.553575,55.54547 89.072925,55.02613 0.25676,-0.25677 -0.38313,-2.10509 -1.422,-4.10736 z m 118.86986,-23.23226 c 23.24189,-14.38759 43.01309,-26.7693 43.93597,-27.51491 1.28307,-1.03661 -0.67587,-2.64859 -8.32332,-6.84915 -9.37776,-5.15098 -36.10471,-16.40893 -36.94966,-15.56398 -1.22404,1.22404 -44.12233,75.98288 -44.12233,76.89198 0,0.60637 0.72031,0.6734 1.60068,0.14891 0.88038,-0.52449 20.61677,-12.72526 43.85866,-27.11285 z m -29.58329,-47.93775 c 3.19391,-5.66751 4.05144,-8.22986 2.95539,-8.83089 -0.84925,-0.4657 -7.30654,-1.89878 -14.34953,-3.18463 -18.12805,-3.30964 -62.54629,-3.30964 -80.67433,0 -7.043,1.28585 -13.50029,2.71893 -14.34953,3.18463 -1.09606,0.60103 -0.23853,3.16338 2.95538,8.83089 l 4.49946,7.98417 h 47.23185 47.23185 z m -32.17727,-49.01716 c 23.69822,-6.90958 42.88305,-27.14719 49.07465,-51.76767 2.44462,-9.72082 1.9597,-31.03796 -0.88849,-39.05838 -1.71798,-4.83778 -2.16307,-5.1405 -10.75595,-7.31535 -16.34134,-4.13599 -32.65401,-5.27107 -65.15434,-4.53363 -29.52166,0.66986 -41.98378,2.06627 -54.08652,6.06054 -5.58302,1.84256 -7.05425,6.32982 -7.84638,23.93147 -0.58331,12.9611 -0.31954,15.4202 2.67829,24.97062 8.51112,27.11448 31.02574,46.21608 59.10116,50.14195 6.0403,0.84464 21.17038,-0.47396 27.87758,-2.42955 z M 148.56752,87.084537 c 33.21479,-7.49468 95.64104,-6.499261 124.04173,1.977908 6.1428,1.833532 7.10691,1.847679 8.8251,0.129492 1.71818,-1.718185 1.38448,-2.161346 -3.05455,-4.05654 -7.54098,-3.219528 -27.21395,-8.013085 -39.71162,-9.676214 -15.45054,-2.056084 -65.98394,-0.840632 -77.95979,1.875122 -13.09297,2.969083 -25.25997,6.808221 -28.0475,8.850019 -3.11217,2.279603 -1.49506,5.254666 2.26098,4.159608 1.5052,-0.43883 7.64573,-1.905558 13.64565,-3.259395 z M 307.9699,56.98566 c -6.50432,-5.359614 -31.39777,-17.016699 -43.53737,-20.387657 -24.03987,-6.675451 -59.80157,-9.081376 -86.47038,-5.817433 -25.82782,3.161016 -52.2873,12.122276 -68.74428,23.282222 l -8.0445,5.455203 5.01255,5.012554 5.01256,5.012554 10.66896,-4.56321 c 27.18,-11.625126 43.18669,-14.352608 84.30029,-14.364464 28.90164,-0.0083 34.31119,0.325064 47.07648,2.901387 15.19719,3.067135 32.91252,8.796855 42.56167,13.765841 l 5.76245,2.96747 5.12103,-5.04994 5.12102,-5.049939 z"
     id="path2321"
     transform="scale(0.75)" />
  <path
     style="fill:#6dd18e;fill-rule:evenodd;stroke-width:19.3594"
     d="m 450.35112,278.12831 c -3.12347,-3.26019 -3.44094,-4.4985 -3.44094,-13.42133 0,-11.07431 1.53924,-9.67935 -13.68325,-12.4006 -36.75093,-6.56975 -64.68217,-29.79855 -69.56813,-57.85581 -1.26222,-7.24823 -1.1801,-9.06213 0.56286,-12.43263 2.35186,-4.548 5.54786,-6.58329 10.33773,-6.58329 7.02889,0 12.16518,6.02006 12.16518,14.25838 0,6.33161 4.59812,14.45845 12.01382,21.23354 10.23096,9.34715 24.76197,15.66715 43.36974,18.86286 l 4.80205,0.82471 v -55.66726 -55.66726 l -18.46865,-0.41461 c -17.39164,-0.39043 -18.65725,-0.592 -21.70284,-3.45664 -1.7788,-1.67313 -3.58875,-4.65635 -4.0221,-6.6294 -0.91864,-4.18252 2.02263,-10.728696 5.70631,-12.700141 1.35501,-0.725177 10.56897,-1.318505 20.47546,-1.318505 h 18.01182 v -8.824993 c 0,-8.251125 -0.20017,-8.87523 -3.0781,-9.597547 -1.69296,-0.424904 -5.95152,-3.043863 -9.46349,-5.819909 C 417.05371,56.831246 414.92052,30.70897 429.76908,14.193801 437.88839,5.1631745 446.32899,1.2805449 457.8417,1.2805449 c 28.28409,0 46.70215,28.5860751 35.20928,54.6471671 -3.32224,7.533452 -11.38519,16.015366 -18.10471,19.045444 l -4.98629,2.248503 v 8.769332 8.769333 h 18.02613 18.02614 l 3.74313,3.743131 c 2.54905,2.549055 3.74313,5.026915 3.74313,7.767455 0,10.27864 -5.44916,12.81977 -27.49058,12.81977 h -16.04795 v 55.71884 55.71884 l 5.44232,-0.82547 c 9.56589,-1.45091 24.41511,-6.65815 32.33376,-11.33866 13.56791,-8.0196 22.40954,-20.46148 22.40954,-31.53453 0,-1.93341 1.49183,-5.28823 3.31519,-7.45516 4.43229,-5.26748 11.41438,-5.50817 16.35864,-0.56391 9.26484,9.26486 -0.69945,36.86047 -18.72681,51.86301 -13.3144,11.08036 -35.10537,20.39413 -52.80909,22.57139 l -7.68327,0.9449 -0.69651,10.72286 c -0.62977,9.69557 -1.03532,11.01429 -4.23317,13.76497 -4.94453,4.25311 -10.92378,4.03865 -15.31946,-0.54945 z M 465.90709,53.251863 c 4.57211,-2.364331 7.23503,-7.512265 7.07345,-13.674334 -0.35714,-13.620429 -16.0075,-19.960061 -25.30848,-10.251934 -6.49984,6.784376 -5.47958,18.446575 2.07682,23.739285 3.55539,2.49029 11.52574,2.582522 16.15821,0.186983 z"
     id="path2360"
     transform="scale(0.75)" />
  <path
     style="fill:#6dd18e;fill-rule:evenodd;stroke-width:19.3594"
     d=""
     id="path2405"
     transform="scale(0.75)" />
  <path
     style="fill:#6dd18e;fill-rule:evenodd;stroke-width:19.3594"
     d=""
     id="path2444"
     transform="scale(0.75)" />
  <path
     style="fill:#6dd18e;fill-rule:evenodd;stroke-width:2.41993"
     d="m 226.09621,427.2536 c 0,-0.43386 0.61295,-0.50783 4.24181,-0.51186 3.2827,-0.004 11.74171,-0.21933 18.808,-0.47953 55.68248,-2.05043 95.29409,-8.55472 120.24415,-19.74425 14.24447,-6.38833 25.33726,-14.91143 32.59928,-25.04755 8.7798,-12.25461 11.87001,-26.95677 8.97213,-42.68624 -2.84293,-15.43126 -12.04864,-32.78669 -25.70085,-48.45354 -2.3969,-2.7506 -8.11486,-8.50292 -11.28594,-11.35374 -16.42783,-14.76877 -38.36828,-28.36837 -62.64231,-38.82831 -10.95995,-4.72277 -23.03827,-8.89642 -34.35516,-11.87138 -3.4881,-0.91695 -4.71025,-1.20057 -13.5052,-3.13406 -4.30906,-0.9473 -7.84072,-1.88365 -7.42759,-1.96926 0.31268,-0.0648 8.75428,1.60862 12.70984,2.51953 41.0018,9.44215 76.97347,27.21731 104.44444,51.61053 3.09427,2.74759 10.59566,10.2954 13.21793,13.29972 10.1068,11.57928 17.04564,22.75911 21.50457,34.64808 4.9507,13.2002 5.9482,26.68764 2.89765,39.18009 -2.228,9.12402 -6.87179,17.44335 -13.67702,24.5023 -13.34905,13.8468 -35.37215,23.74141 -66.68132,29.95881 -24.39705,4.8448 -56.53931,7.73027 -93.63984,8.4062 -2.59711,0.0473 -6.07259,0.1262 -7.72329,0.17528 -2.89273,0.086 -3.00128,0.078 -3.00128,-0.22082 z"
     id="path2483"
     transform="scale(0.75)" />
  <path
     style="fill:#6dd18e;fill-rule:evenodd;stroke-width:2.41993"
     d=""
     id="path2522"
     transform="scale(0.75)" />
  <path
     style="fill:#6dd18e;fill-rule:evenodd;stroke-width:2.41993"
     d="m 226.09704,372.53693 c 7.4e-4,-0.40796 0.17308,-0.56374 1.56067,-1.41074 3.35542,-2.0482 29.05737,-17.92667 36.93488,-22.81809 48.0974,-29.86537 75.47944,-46.73874 84.40555,-52.01241 7.65771,-4.52429 -5.4967,3.71717 -60.03143,37.61074 -34.1826,21.24463 -62.31226,38.73067 -62.51034,38.85785 -0.34353,0.22057 -0.36012,0.21008 -0.35933,-0.22735 z"
     id="path2600"
     transform="scale(0.75)" />
  <path
     style="fill:#6dd18e;fill-rule:evenodd;stroke-width:2.41993"
     d=""
     id="path2639"
     transform="scale(0.75)" />
  <path
     style="fill:#6dd18e;fill-rule:evenodd;stroke-width:2.41993"
     d="m 226.09621,414.69167 v -12.06003 l 10.92465,-0.19743 c 30.8976,-0.55833 41.93954,-1.16638 60.22563,-3.31645 44.712,-5.25721 72.55581,-15.10984 84.33041,-29.84062 2.41202,-3.01759 4.31061,-6.52754 5.28159,-9.76415 2.45031,-8.16776 1.52622,-18.62644 -2.56699,-29.05237 -1.72918,-4.40444 -4.27317,-9.14144 -6.97057,-12.97947 -6.54695,-9.3154 -20.32531,-23.36657 -23.40257,-23.86594 -0.62294,-0.10109 -0.53501,-0.14683 -6.01031,3.12639 -12.09343,7.22965 -30.26843,18.42583 -77.47297,47.72492 -12.44084,7.72183 -34.33882,21.26299 -41.61771,25.73534 l -2.64112,1.62278 -0.0405,-29.25718 -0.0404,-29.25718 3.37709,-5.91099 c 6.0368,-10.56636 8.92528,-15.83227 8.76972,-15.98783 -0.17987,-0.17986 -3.45967,-0.39195 -7.8066,-0.5048 L 226.0962,290.794 v -12.22033 -12.22033 l 13.72584,-0.006 13.72584,-0.006 2.82729,-5.07643 c 4.23542,-7.60475 4.93602,-9.13052 4.93602,-10.74968 0,-0.72883 -0.0435,-0.82379 -0.48133,-1.05018 -1.07877,-0.55786 -10.9659,-2.67877 -16.32582,-3.50209 -4.44263,-0.68243 -7.65137,-0.98995 -17.08728,-1.63764 l -1.32056,-0.0907 v -16.55268 -16.55268 l 21.48915,0.006 21.48914,0.006 -0.41979,0.35439 c -0.23088,0.19492 -1.09346,0.92419 -1.91685,1.62061 -0.82338,0.69641 -3.08352,2.45388 -5.02252,3.90548 -5.18955,3.88506 -7.20428,5.62506 -6.87859,5.94064 0.43764,0.42404 4.96271,1.5932 11.83673,3.0583 25.85991,5.51168 51.80122,15.87009 75.87229,30.29592 19.79801,11.86499 35.1763,24.70971 46.42041,38.77264 13.43221,16.79959 21.03572,33.44334 22.66711,49.61735 0.24748,2.45358 0.24704,8.42312 -0.002,10.78906 -1.38372,13.2091 -7.05929,24.55018 -17.21023,34.38994 -7.57047,7.33838 -17.64492,13.57715 -29.78708,18.44615 -23.80531,9.5459 -60.45868,15.42072 -109.32652,17.52291 -8.06661,0.34701 -14.44334,0.54713 -20.56875,0.64553 -2.94926,0.0474 -6.1006,0.12331 -7.00298,0.16877 l -1.63992,0.0826 z m 24.89059,-85.71104 c 36.22946,-22.34615 72.66488,-45.00808 78.69773,-48.94805 1.14823,-0.7499 2.07015,-1.46452 2.12915,-1.65041 0.14756,-0.46492 -0.27342,-1.18595 -1.07045,-1.83339 -3.35762,-2.72747 -12.83025,-7.60669 -25.09316,-12.92514 -7.73884,-3.35636 -15.89916,-6.55357 -18.20785,-7.13384 -1.1423,-0.28711 -1.16531,-0.28673 -1.46076,0.0239 -1.19197,1.25319 -38.94418,66.88917 -43.05018,74.84703 -1.04593,2.02712 -1.06164,2.07568 -0.74822,2.31312 0.1971,0.14931 0.47393,0.20472 0.7203,0.14416 0.2201,-0.0541 3.85765,-2.23091 8.08344,-4.83737 z"
     id="path2678"
     transform="scale(0.75)" />
  <path
     style="fill:#6dd18e;fill-rule:evenodd;stroke-width:2.41993"
     d="m 456.19413,282.41642 c -2.65925,-0.55382 -4.57227,-1.52475 -6.37325,-3.23465 -1.91448,-1.81766 -3.19188,-4.11749 -3.70243,-6.6658 -0.2185,-1.09061 -0.25004,-2.44395 -0.21262,-9.12389 l 0.0439,-7.84333 0.40017,0.80034 0.40017,0.80034 0.10277,7.12303 c 0.0607,4.20718 0.17849,7.54309 0.28776,8.14919 0.44025,2.4421 1.23084,3.83608 3.36706,5.9368 2.38864,2.34896 4.23875,3.20106 7.21477,3.32291 1.54971,0.0634 2.04901,0.0207 3.08918,-0.26471 2.17177,-0.59581 4.05094,-1.74503 5.91529,-3.6175 2.39285,-2.40328 2.59116,-3.34827 3.54417,-16.88812 l 0.2197,-3.12133 -0.0385,7.043 c -0.0364,6.67075 -0.0569,7.11018 -0.38677,8.31425 -1.53704,5.60976 -6.3967,9.41839 -11.93622,9.35471 -0.8883,-0.0102 -1.75916,-0.0486 -1.93523,-0.0852 z"
     id="path2717"
     transform="scale(0.75)" />
  <path
     style="fill:#6dd18e;fill-rule:evenodd;stroke-width:2.41993"
     d="m 203.60664,382.97626 c -1.30123,-0.32449 -3.15698,-1.17039 -4.91578,-2.24074 -1.40814,-0.85695 -129.570607,-80.50827 -137.45728,-85.42793 -1.536517,-0.95846 -2.65615,-1.74267 -2.488074,-1.74267 0.559648,0 17.363015,10.31346 65.076564,39.94227 46.62796,28.95469 73.17989,45.15427 78.90284,48.13937 l 1.83942,0.95944 1.44197,-0.098 c 1.4876,-0.10108 3.08944,-0.48905 4.48118,-1.08535 0.9006,-0.38587 4.61592,-2.58582 11.08369,-6.56296 2.41616,-1.48574 4.42271,-2.70134 4.45903,-2.70134 0.0363,0 0.0626,0.19808 0.0584,0.44018 -0.007,0.40274 -0.43677,0.70574 -5.05207,3.56152 -8.25893,5.11029 -9.20749,5.66789 -10.55649,6.20548 -0.70953,0.28275 -1.67377,0.58687 -2.14275,0.67581 -1.14513,0.21716 -3.74208,0.18143 -4.73068,-0.0651 z"
     id="path2756"
     transform="scale(0.75)" />
  <path
     style="fill:#6dd18e;fill-rule:evenodd;stroke-width:2.41993"
     d="m 147.72542,294.66028 c -19.99153,-34.43573 -21.80907,-37.50876 -22.17061,-37.48536 -0.61706,0.04 -7.76944,2.63789 -12.70679,4.61545 -10.28054,4.11767 -20.736994,9.17056 -29.196029,14.10845 -1.267523,0.7399 -2.329224,1.32064 -2.359336,1.29053 -0.13143,-0.13143 0.948568,-0.96852 2.503003,-1.94003 1.923405,-1.20212 11.253657,-5.94787 15.76671,-8.01959 10.739002,-4.92976 23.648612,-10.21549 26.099112,-10.68605 0.36236,-0.0696 0.53344,-0.0213 0.66365,0.18716 1.20079,1.92278 15.89532,27.15784 27.18104,46.67827 14.23256,24.61746 16.20524,28.1344 16.04701,28.60908 -0.028,0.0841 -9.85053,-16.72695 -21.82776,-37.35791 z"
     id="path2795"
     transform="scale(0.75)" />
  <path
     style="fill:#6dd18e;fill-rule:evenodd;stroke-width:2.41993"
     d="m 157.62085,263.83227 c -4.39852,-7.77505 -6.04118,-10.91015 -5.91492,-11.28892 0.0279,-0.0836 1.76702,2.80691 3.86475,6.42345 2.09774,3.61654 3.90115,6.69463 4.00759,6.84019 0.17946,0.24543 0.27638,0.24582 1.33369,0.005 1.03618,-0.23567 5.16735,-0.25933 45.29376,-0.25933 38.73122,0 44.26679,0.0295 45.0754,0.2401 0.507,0.13206 1.01408,0.24011 1.12686,0.24011 0.11277,0 1.21976,-1.74675 2.45998,-3.88165 5.14407,-8.85501 5.98873,-10.26177 5.88668,-9.80418 -0.18188,0.81558 -1.80611,3.96784 -4.63008,8.98596 l -2.70559,4.80774 -11.76699,0.10613 c -6.47185,0.0584 -27.70553,0.10613 -47.18595,0.10613 h -35.41895 z"
     id="path2834"
     transform="scale(0.75)" />
  <path
     style="fill:#6dd18e;fill-rule:evenodd;stroke-width:2.41993"
     d=""
     id="path2873"
     transform="scale(0.75)" />
  <path
     style="fill:#6dd18e;fill-rule:evenodd;stroke-width:2.41993"
     d="m 202.8465,340.91421 c -0.39335,-0.6433 -1.68666,-2.75431 -2.87402,-4.69113 -10.00885,-16.32651 -26.06205,-44.30862 -25.65383,-44.71684 0.0416,-0.0416 0.10096,-0.0455 0.132,-0.009 0.29784,0.35194 29.25096,50.44654 29.19112,50.50638 -0.044,0.0441 -0.40192,-0.44625 -0.79527,-1.08955 z"
     id="path2912"
     transform="scale(0.75)" />
  <path
     style="fill:#6dd18e;fill-rule:evenodd;stroke-width:2.41993"
     d="m 184.15837,426.5793 c -22.73361,-0.44243 -38.22498,-1.09784 -53.14262,-2.2484 C 83.934087,420.69966 51.597581,412.6888 30.57301,399.44779 25.592078,396.31087 21.76839,393.32709 17.863848,389.53034 7.1143136,379.07754 2.6696711,369.73209 1.6845889,355.51128 1.4776076,352.52327 1.477641,345.26022 1.6846475,342.78587 2.4137814,334.07053 4.4196726,327.40295 9.2931823,317.49511 14.099568,307.72373 19.946257,299.1038 27.75015,290.28353 c 2.426733,-2.7428 8.950112,-9.24953 11.866708,-11.83644 10.747035,-9.53219 23.037071,-18.30558 35.375054,-25.2529 17.250044,-9.71322 37.860098,-18.27556 57.368798,-23.83357 4.43127,-1.26246 8.59416,-2.29052 14.18346,-3.50271 6.71118,-1.45551 10.43718,-2.44421 10.95454,-2.90679 0.3307,-0.29568 -1.70643,-2.05473 -6.87461,-5.93618 -1.93683,-1.45461 -4.34985,-3.35582 -5.36229,-4.2249 l -1.84078,-1.58016 24.97063,-0.043 24.97062,-0.043 2.48106,0.44215 c 2.37037,0.42242 2.70601,0.44184 7.5232,0.43506 4.81867,-0.007 6.39691,-0.0951 11.44487,-0.64082 1.92554,-0.20815 5.8972,-0.23578 28.21815,-0.19629 l 25.9772,0.046 -1.56681,1.33733 c -0.86174,0.73553 -3.29555,2.64007 -5.40845,4.23231 -5.57632,4.2022 -7.51724,5.87055 -7.194,6.1837 0.43694,0.4233 4.96682,1.5935 11.83598,3.05756 25.88226,5.51645 51.71245,15.82512 75.79225,30.24822 19.52937,11.69753 34.63407,24.21946 45.85747,38.01623 17.79199,21.87144 25.87832,44.39421 22.95892,63.94721 -2.55557,17.11621 -13.26709,31.73944 -31.09832,42.45503 -2.90919,1.74826 -7.99705,4.39697 -11.14676,5.80295 -19.36382,8.64368 -47.66668,14.48322 -85.31631,17.60278 -13.41212,1.11129 -24.8801,1.7189 -44.25883,2.34492 -6.50485,0.21014 -46.512,0.31228 -55.30353,0.14118 z m 35.77522,-23.93015 c 28.70407,-0.21391 50.7879,-0.94093 63.38697,-2.08674 58.21425,-5.29427 91.33256,-17.11719 101.53601,-36.24738 0.44609,-0.83636 1.06701,-2.18454 1.37982,-2.99596 4.60913,-11.95569 0.89829,-29.98047 -9.06306,-44.02234 -6.9645,-9.81741 -20.77464,-23.73181 -23.55399,-23.73181 -0.48356,0 -9.6138,5.46228 -27.96076,16.72787 -10.98061,6.74243 -19.64191,12.10292 -50.90166,31.50307 -36.9802,22.95033 -61.83443,38.22353 -63.81632,39.21586 -2.44432,1.22385 -5.64524,1.71463 -7.04323,1.07993 -3.52434,-1.6001 -32.53016,-19.27631 -79.68451,-48.55991 -48.038826,-29.83286 -64.815816,-40.12689 -65.397989,-40.12689 -0.4978,0 -2.352182,1.06361 -3.716914,2.13189 -6.129748,4.79823 -15.15956,14.94549 -20.323674,22.83874 -6.887779,10.52784 -10.408707,20.94776 -10.411861,30.81311 -0.0019,5.85502 1.081972,10.52559 3.50706,15.11283 9.494546,17.95965 38.813962,29.46571 89.140308,34.98206 13.91144,1.52486 30.11543,2.67765 44.1788,3.143 6.48689,0.21465 31.34672,0.43326 40.81737,0.35892 3.69757,-0.029 11.76501,-0.0903 17.92763,-0.13625 z M 207.49102,344.7467 c 5.9261,-9.17795 31.13952,-52.94687 30.73402,-53.35236 -0.4298,-0.42981 -13.06031,-0.70874 -32.13921,-0.70976 -19.56902,-10e-4 -31.53211,0.26645 -31.98078,0.71512 -0.36406,0.36407 7.86264,14.96134 19.30757,34.25888 7.9955,13.48137 12.44536,20.56875 12.91424,20.56875 0.11448,0 0.63833,-0.66628 1.16416,-1.48063 z m 36.13062,-11.28882 c 1.53712,-0.78299 62.50428,-38.56127 79.95605,-49.54473 6.88751,-4.33472 8.12024,-5.16632 8.24607,-5.56276 0.0517,-0.16284 -0.0131,-0.50334 -0.1442,-0.75666 -1.30485,-2.52327 -17.3542,-10.63419 -35.25031,-17.81457 -5.70336,-2.28833 -9.19832,-3.51011 -10.04082,-3.51011 -0.16167,0 -0.55752,0.44093 -0.96998,1.08046 -3.89753,6.04318 -40.60959,70.06933 -43.099,75.16507 -0.447,0.91503 -0.44987,0.93798 -0.14454,1.16125 0.3268,0.23895 0.64343,0.19126 1.44673,-0.21795 z m -73.48863,0.15547 c 0.16367,-0.26483 -0.262,-1.60329 -1.00267,-3.15273 -0.86264,-1.80457 -3.8732,-7.09071 -14.95056,-26.25117 -13.64725,-23.60557 -27.04895,-46.6056 -27.67437,-47.4948 -0.38054,-0.54105 -0.50785,-0.5216 -3.65313,0.55803 -6.86238,2.35556 -21.52551,8.74276 -31.13325,13.56154 -7.654936,3.83934 -10.300047,5.42919 -10.945231,6.57867 -0.479946,0.85509 -0.232324,1.12406 2.985276,3.24265 15.656648,10.30898 85.089765,53.07686 86.183805,53.0856 0.0608,4.8e-4 0.14638,-0.057 0.19013,-0.12779 z m -13.46855,-71.69333 c -3.11303,-5.56637 -4.09445,-7.41014 -3.99648,-7.50811 0.0438,-0.0438 1.53832,2.41289 3.3211,5.45936 1.78279,3.04646 3.3614,5.68717 3.50802,5.86825 0.25762,0.31813 0.31751,0.32227 1.77939,0.12273 1.20424,-0.16436 10.34404,-0.20641 44.81121,-0.20613 23.81413,1.6e-4 43.7903,0.0554 44.39148,0.12277 0.60117,0.0673 1.04537,0.17011 0.98712,0.22839 -0.0582,0.0583 -11.96698,0.14422 -26.46383,0.19098 l -26.35794,0.085 27.45168,0.0286 27.45168,0.0286 2.48106,-4.43545 c 4.138,-7.39762 5.28514,-9.85206 5.2798,-11.29674 -0.003,-0.74605 -0.0951,-0.9392 -0.56791,-1.18781 -1.13731,-0.59806 -12.76053,-3.00031 -17.91751,-3.70315 -19.4866,-2.65581 -56.94378,-2.53265 -74.98921,0.24656 -5.38257,0.82898 -15.25365,2.94587 -16.32853,3.50171 -0.4378,0.22639 -0.48132,0.32135 -0.48132,1.05018 0,1.60861 0.90425,3.57311 5.00593,10.87547 2.65394,4.72491 2.83252,5.02036 2.95836,4.89451 0.0414,-0.0414 -1.00441,-2.006 -2.3241,-4.36572 z"
     id="path2951"
     transform="scale(0.75)" />
  <path
     style="fill:#6dd18e;fill-rule:evenodd;stroke-width:2.41993"
     d="M 184.15837,426.56973 C 166.36055,426.249 153.09753,425.76598 140.2997,424.97243 95.095779,422.16946 62.667362,415.62794 40.267305,404.79369 30.918765,400.27209 23.974937,395.50168 17.468928,389.13121 7.0246454,378.90452 2.6748633,369.63871 1.6862342,355.51128 c -0.212494,-3.03652 -0.2106215,-10.16077 0.00335,-12.75671 0.7339044,-8.90375 2.9964347,-16.2198 8.1581507,-26.37994 4.7791091,-9.40703 10.3538011,-17.53857 17.8315671,-26.01005 2.462363,-2.78959 8.961935,-9.27823 11.937553,-11.91749 10.757442,-9.54142 23.040647,-18.30967 35.375054,-25.25214 17.331713,-9.75523 37.801941,-18.25975 57.368801,-23.83433 4.34044,-1.23658 8.64685,-2.30406 13.80012,-3.42079 6.90099,-1.49546 10.9214,-2.55459 11.3462,-2.98902 0.26631,-0.27236 -1.83293,-2.09899 -6.27816,-5.46285 -2.26945,-1.71737 -4.95462,-3.8325 -5.96706,-4.70029 l -1.84078,-1.57779 24.97063,-0.043 24.97062,-0.043 2.48106,0.43956 c 2.35547,0.41731 2.73223,0.43938 7.44317,0.43605 4.76714,-0.003 6.62943,-0.10649 11.5249,-0.63811 1.93031,-0.20962 5.84444,-0.23699 28.23632,-0.1974 l 25.99538,0.046 -1.87512,1.56484 c -1.0313,0.86066 -3.18516,2.54851 -4.78634,3.75078 -4.90578,3.68359 -7.63324,5.93503 -7.63324,6.30103 0,0.39393 3.95704,1.45683 11.60493,3.1172 8.54932,1.85608 15.05771,3.58122 22.48957,5.96121 25.65945,8.21717 51.57688,21.39963 72.1063,36.67562 14.47034,10.76742 24.76347,21.21265 33.93425,34.43572 13.20735,19.04325 18.92505,38.29541 16.39866,55.21616 -3.60526,24.14664 -23.26347,42.96545 -55.76272,53.38168 -25.85456,8.28655 -62.0412,13.07082 -110.77525,14.6457 -14.68828,0.47467 -43.31603,0.6211 -60.58578,0.30991 z m 43.53852,-24.00529 c 28.51982,-0.37609 44.11265,-0.95175 56.42401,-2.08304 48.98072,-4.5009 80.26718,-13.7883 94.60279,-28.08293 4.82757,-4.81376 7.60677,-9.74971 8.78739,-15.60664 2.49101,-12.35764 -1.96729,-28.34071 -11.41881,-40.93665 -3.7232,-4.96188 -7.61356,-9.40327 -12.65693,-14.44968 -3.64118,-3.64338 -5.88357,-5.62084 -7.82978,-6.90476 -1.5233,-1.00493 -1.79516,-1.06758 -2.70808,-0.62405 -3.00582,1.46034 -25.55327,15.2989 -83.34277,51.15185 -28.066,17.4123 -53.66026,33.15719 -57.28565,35.24054 -2.56499,1.47399 -5.27218,2.26196 -7.21713,2.10067 -1.00054,-0.083 -2.19394,-0.72037 -9.6888,-5.17474 -14.72972,-8.75423 -31.92848,-19.31294 -74.42754,-45.69276 -34.285037,-21.28125 -56.014333,-34.67691 -60.238672,-37.1359 -1.679902,-0.97787 -1.747236,-1.00156 -2.341237,-0.82359 -3.769779,1.12945 -15.350469,13.02569 -22.226252,22.83187 -11.13659,15.8829 -14.668822,33.02736 -9.385047,45.55238 2.703794,6.40926 7.581119,11.86112 14.94891,16.70986 3.163366,2.08181 4.703768,2.94914 8.524113,4.79954 20.486714,9.92285 53.991595,16.07555 101.126995,18.57056 14.78934,0.78285 43.41425,0.99185 76.35249,0.55747 z m -19.80831,-58.45801 c 3.29016,-5.19104 13.28573,-22.2015 21.28067,-36.21541 6.88518,-12.06868 9.21959,-16.33289 9.03976,-16.51271 -0.40247,-0.40248 -13.9304,-0.69437 -32.12131,-0.69307 -19.48618,10e-4 -31.54018,0.272 -31.98629,0.7181 -0.36004,0.36004 7.85135,14.91381 19.50776,34.57538 7.71165,13.00767 12.26279,20.24861 12.72683,20.24861 0.11457,0 0.81324,-0.9544 1.55258,-2.1209 z m 35.69575,-10.62925 c 1.71029,-0.87009 70.8104,-43.72837 83.58184,-51.84035 4.38348,-2.78423 4.80697,-3.11618 4.64424,-3.64035 -0.21359,-0.68802 -0.70815,-1.19899 -2.13569,-2.20654 -5.3356,-3.76587 -19.45986,-10.52466 -34.26901,-16.39852 -4.53781,-1.79987 -8.33206,-3.12237 -8.95806,-3.12237 -0.23025,0 -0.5372,0.32639 -1.03011,1.09538 -4.01706,6.26701 -40.45189,69.78425 -43.01954,74.99642 -0.52287,1.06139 -0.52796,1.09139 -0.22335,1.31446 0.32289,0.23644 0.64425,0.19128 1.40968,-0.19813 z m -73.46319,0.0485 c 0.11455,-0.29847 -0.57323,-2.28272 -1.2731,-3.67298 -1.57982,-3.13822 -40.95951,-71.15503 -42.34471,-73.13802 -0.37266,-0.53347 -0.51647,-0.5139 -3.37228,0.45882 -7.28116,2.48006 -24.350316,9.97381 -33.652974,14.77443 -6.694665,3.45477 -8.88378,4.93477 -8.88378,6.00608 0,0.66682 0.70406,1.16631 9.991557,7.08838 22.545867,14.37613 78.432247,48.67386 79.349337,48.69706 0.0566,0.001 0.14029,-0.0948 0.18595,-0.21377 z m -13.86259,-72.31947 c -3.05429,-5.48766 -3.69061,-6.69422 -3.58575,-6.79909 0.0382,-0.0382 0.98977,1.49966 2.11471,3.41737 1.12493,1.91771 2.66522,4.53118 3.42287,5.80773 l 1.37753,2.32098 0.64027,-0.0423 c 4.72004,-0.31166 87.78176,-0.39823 90.48582,-0.0943 0.46623,0.0524 0.80239,0.14059 0.74704,0.19597 -0.0554,0.0554 -10.5211,0.13934 -23.25721,0.18657 l -23.15657,0.0859 24.24737,-0.006 24.24736,-0.006 2.30549,-4.08174 c 4.15958,-7.36431 5.46372,-10.13898 5.46372,-11.62459 0,-0.84801 -0.23449,-1.08669 -1.40071,-1.42584 -2.8411,-0.82621 -12.31892,-2.73909 -16.60696,-3.35174 -10.64204,-1.52046 -28.63208,-2.25826 -45.65997,-1.87259 -14.5585,0.32974 -23.694,0.99539 -31.17272,2.27139 -5.43491,0.92728 -14.0416,2.79259 -14.85057,3.21852 -0.19575,0.10306 -0.40882,0.26664 -0.4735,0.36351 -0.20536,0.30756 -0.13192,1.47014 0.14899,2.35868 0.37668,1.19143 2.47281,5.27716 4.99827,9.74252 2.46166,4.35253 2.57265,4.53618 2.67805,4.43079 0.0434,-0.0434 -1.1777,-2.33661 -2.71353,-5.09605 z"
     id="path2990"
     transform="scale(0.75)" />
  <path
     style="fill:#6dd18e;fill-rule:evenodd;stroke-width:2.41993"
     d="M 183.91826,426.57809 C 165.68719,426.22435 152.896,425.75348 140.2997,424.97243 98.726064,422.39456 68.014768,416.66222 45.870419,407.34694 42.387514,405.88182 36.106137,402.77211 33.294168,401.12085 26.968902,397.4065 22.33419,393.89511 17.468928,389.13121 6.9243107,378.80627 2.646643,369.61642 1.6706016,355.19115 1.3935718,351.09682 1.5607028,342.8567 1.9838979,339.74457 c 0.9343707,-6.87124 2.6086865,-12.27191 6.1963938,-19.98708 4.8240573,-10.37386 11.0180763,-19.72702 19.4127953,-29.3139 2.170209,-2.4784 9.241903,-9.5428 12.023771,-12.01137 10.816208,-9.59804 23.352439,-18.51438 35.935292,-25.55881 21.410327,-11.98643 47.30464,-21.90529 69.90658,-26.77784 7.65901,-1.65113 12.12833,-2.8605 12.12833,-3.28185 0,-0.33665 -2.81835,-2.67413 -7.043,-5.84132 -2.68867,-2.01567 -4.98954,-3.86519 -6.24265,-5.01807 l -0.88038,-0.80995 25.08391,-0.007 25.0839,-0.007 2.36778,0.43737 c 2.26237,0.41789 2.58868,0.43697 7.32989,0.42856 4.79404,-0.009 6.75511,-0.11647 11.5249,-0.63444 1.93029,-0.20962 5.84396,-0.23699 28.23187,-0.1974 l 25.99092,0.046 -1.7406,1.45949 c -0.95734,0.80272 -3.28926,2.6338 -5.18206,4.06907 -5.16197,3.9142 -7.36313,5.73742 -7.36313,6.09888 0,0.37451 3.54578,1.32104 11.60493,3.09787 9.11254,2.00906 14.94838,3.56188 22.84419,6.07843 17.76959,5.66352 37.0829,14.46794 53.66837,24.46599 17.61281,10.61733 32.64585,22.76926 42.80865,34.60426 15.10765,17.59347 24.0164,35.82106 25.88228,52.95591 0.317,2.91115 0.35785,8.81146 0.0794,11.4715 -2.07917,19.86303 -14.24329,36.08078 -35.71627,47.61852 -22.08969,11.86912 -56.97743,19.01158 -107.88591,22.08716 -7.50595,0.45346 -17.68156,0.89089 -28.41209,1.2214 -6.89953,0.21251 -46.79515,0.31258 -55.70371,0.13973 z m 54.7433,-24.15147 c 28.60891,-0.65612 36.89231,-1.0544 50.34142,-2.42048 53.32548,-5.41653 84.23397,-16.56387 95.02079,-34.26981 2.892,-4.74706 4.11927,-9.56469 4.11354,-16.14757 -0.009,-10.36909 -3.66809,-21.47181 -10.31316,-31.29331 -6.03362,-8.91777 -20.08739,-23.51496 -23.67415,-24.58958 -0.58049,-0.17392 -0.68226,-0.14652 -1.86729,0.50266 -2.68013,1.46824 -15.86227,9.47066 -33.34699,20.24382 -8.48185,5.22606 -18.58674,11.48419 -50.66156,31.37557 -7.92337,4.91372 -17.61149,10.913 -21.52916,13.33173 -3.91767,2.41873 -9.24794,5.71039 -11.84504,7.31481 -11.82867,7.3074 -22.73486,13.92429 -23.96814,14.54169 -1.5827,0.79234 -3.97153,1.38807 -5.55382,1.38501 -0.98694,-0.002 -1.56152,-0.26058 -5.05275,-2.27473 -10.40554,-6.00316 -33.80415,-20.32288 -75.79226,-46.3841 -49.198006,-30.53627 -65.168219,-40.34128 -65.695159,-40.33396 -1.327262,0.0185 -5.090388,2.95448 -9.619024,7.50486 -13.35489,13.41901 -21.305029,26.59138 -24.006012,39.77491 -0.795372,3.88223 -1.07674,9.43726 -0.649461,12.82229 1.034464,8.19532 4.676965,14.86655 11.291924,20.68114 11.553156,10.15528 31.037662,17.36273 60.025543,22.20386 19.722739,3.2938 46.355779,5.60676 71.070239,6.17213 7.77435,0.17786 62.50018,0.0703 71.71052,-0.14094 z m -31.97828,-56.55944 c 1.90186,-2.06777 31.9878,-54.02681 31.5416,-54.473 -0.16103,-0.16103 -4.64297,-0.40968 -9.56758,-0.53078 -7.91293,-0.19458 -36.66182,-0.20473 -44.33887,-0.0156 -6.47085,0.15937 -10.00702,0.3456 -10.1985,0.53708 -0.40863,0.40864 10.29498,19.25723 22.28101,39.23587 6.25924,10.43306 9.52027,15.59441 9.85894,15.60402 0.0507,0.001 0.24121,-0.15945 0.4234,-0.35754 z m 36.43205,-12.18312 c 0.67292,-0.28117 3.63754,-2.096 24.35849,-14.91139 43.84131,-27.11477 62.61391,-38.86084 63.83353,-39.94085 l 0.64039,-0.56708 -0.27937,-0.58873 c -0.89472,-1.88547 -9.66262,-6.75277 -22.38095,-12.42424 -9.96952,-4.44571 -21.49904,-8.98272 -22.82701,-8.98272 -0.36398,0 -0.75029,0.56511 -3.1733,4.64198 -9.23523,15.53877 -36.96094,63.97198 -40.48129,70.71552 -0.91348,1.74983 -0.9332,1.81352 -0.63219,2.04087 0.3756,0.28367 0.30555,0.28243 0.9417,0.0166 z m -73.07934,-0.62233 c -0.14538,-1.26767 -1.11284,-3.16509 -5.71858,-11.21523 -8.91947,-15.58997 -31.79401,-55.03037 -36.61768,-63.13641 -1.31496,-2.20976 -1.37406,-2.28097 -1.89299,-2.28097 -2.11554,0 -20.96544,7.92913 -33.127301,13.93486 -8.907002,4.39843 -12.085143,6.39093 -12.085143,7.57663 0,0.48997 0.526483,0.94219 3.041294,2.61232 13.85992,9.20459 85.20463,53.15399 86.33756,53.18521 0.0775,0.002 0.10575,-0.30225 0.0628,-0.67641 z m -11.12533,-66.98851 c -0.0588,-0.15406 -1.05316,-1.97284 -2.20962,-4.04172 -2.7615,-4.94025 -4.12976,-7.52288 -4.03551,-7.61714 0.0421,-0.0421 1.57025,2.46492 3.39594,5.57109 1.82569,3.10617 3.40948,5.7425 3.51953,5.85851 0.1637,0.17257 0.44456,0.17519 1.54412,0.0144 1.03582,-0.15143 11.30957,-0.19714 44.80251,-0.19935 23.90217,-0.002 43.95037,0.0523 44.55155,0.1197 0.60117,0.0674 1.04539,0.17025 0.98714,0.22852 -0.0582,0.0583 -8.29342,0.14521 -18.30038,0.19318 l -18.19446,0.0872 19.28673,-0.007 19.28674,-0.007 2.51574,-4.4819 c 4.98308,-8.87759 5.9635,-11.341 4.85932,-12.20955 -0.89209,-0.70171 -13.0951,-3.23622 -19.37722,-4.02456 -19.25653,-2.41647 -54.91198,-2.29575 -72.59089,0.24578 -4.20535,0.60456 -13.80229,2.54609 -16.58749,3.35577 -1.104,0.32094 -1.34014,0.56907 -1.34014,1.40814 0,1.4726 1.24465,4.14199 5.19627,11.14438 2.23349,3.95782 2.6374,4.64198 2.74048,4.64198 0.0311,0 0.008,-0.12605 -0.0504,-0.28012 z"
     id="path3029"
     transform="scale(0.75)" />
  <path
     style="fill:#6dd18e;fill-rule:evenodd;stroke-width:2.41993"
     d="m 187.91997,426.64296 c -16.97961,-0.29001 -29.30281,-0.67408 -40.73734,-1.26961 C 82.830465,422.0217 42.576561,411.42677 20.568753,392.04824 c -2.596865,-2.28662 -6.431811,-6.21437 -8.262027,-8.46197 -6.7904264,-8.339 -9.7934282,-16.33214 -10.6360365,-28.31012 -0.2810281,-3.99492 -0.111413,-12.41416 0.3129009,-15.53158 0.9899436,-7.27307 2.8942565,-13.18055 6.9658541,-21.60919 4.6729275,-9.67346 10.6767195,-18.60399 18.5627465,-27.61175 2.418855,-2.76292 9.902665,-10.18608 12.954772,-12.84978 18.250199,-15.9277 38.089106,-27.96811 63.017077,-38.24561 14.69763,-6.05966 28.1544,-10.31553 42.65815,-13.49118 7.17633,-1.57129 11.44487,-2.73141 11.44487,-3.11053 0,-0.36671 -2.52435,-2.44801 -7.92337,-6.53272 -1.76075,-1.33212 -3.88566,-3.02097 -4.72201,-3.75299 l -1.52065,-1.33094 25.05066,-0.0425 25.05066,-0.0425 2.32099,0.39763 c 4.18732,0.71738 10.87924,0.68853 18.06916,-0.0779 2.86359,-0.30525 3.99719,-0.31603 29.06877,-0.27621 l 26.08899,0.0414 -1.99874,1.65119 c -1.0993,0.90815 -3.43933,2.74043 -5.20008,4.07172 -4.70533,3.55769 -7.12303,5.5577 -7.12303,5.89243 0,0.36219 4.29166,1.51458 11.2848,3.03017 8.07652,1.7504 13.63362,3.19484 20.72882,5.38799 36.92931,11.41497 74.13399,33.22978 95.36832,55.91882 12.24089,13.07949 21.76368,28.42649 26.27884,42.35123 3.39017,10.4553 4.2892,20.3347 2.70812,29.75945 -2.37978,14.18567 -10.53674,26.76439 -23.75247,36.62828 -15.04503,11.22923 -35.61508,18.60209 -66.14183,23.70703 -21.61276,3.61428 -46.84323,5.73409 -81.28091,6.82908 -4.82819,0.15351 -45.63109,0.31484 -52.02213,0.20569 z m 50.10132,-24.22178 c 29.42943,-0.62412 38.85719,-1.10272 54.02299,-2.74251 41.78149,-4.51757 68.94842,-12.49882 83.63559,-24.57094 5.40705,-4.44434 9.11712,-9.54058 10.95262,-15.04481 3.98296,-11.94398 0.0198,-29.53703 -9.69601,-43.04176 -6.54712,-9.10035 -19.45974,-22.31858 -22.77201,-23.31096 -0.75373,-0.22582 -0.64498,-0.27982 -6.57656,3.26609 -10.56168,6.3138 -25.64429,15.5897 -61.94636,38.09741 -41.93053,25.99741 -63.4647,39.28131 -71.23031,43.94022 -4.27262,2.56332 -5.76063,3.15341 -8.42278,3.34016 -1.53919,0.10797 -1.83834,-0.004 -5.21256,-1.95902 -11.67654,-6.76381 -32.94778,-19.77887 -76.72311,-46.94397 -47.192012,-29.28534 -64.07913,-39.66147 -65.028896,-39.95638 -1.72465,-0.53551 -9.592989,6.52803 -16.928115,15.19665 -9.832064,11.61949 -15.434392,22.75109 -17.320252,34.41464 -0.225288,1.39335 -0.283713,2.69595 -0.279996,6.24266 0.0045,4.28006 0.02466,4.57562 0.448043,6.56279 1.390767,6.52765 4.055955,11.42577 8.873264,16.30744 15.71051,15.92039 50.675997,25.36892 108.163582,29.22842 8.60783,0.57789 16.92736,0.94263 25.6109,1.1228 8.31288,0.17247 60.47597,0.0622 70.42997,-0.14893 z M 207.1958,345.12509 c 3.0126,-4.43626 20.87559,-35.02607 28.37944,-48.59891 2.28611,-4.13508 2.71423,-5.0059 2.52001,-5.12592 -0.3164,-0.19555 -4.47265,-0.41285 -10.31832,-0.53946 -7.54324,-0.16338 -35.58625,-0.16591 -43.46695,-0.004 -5.60137,0.11514 -10.00691,0.3448 -10.19349,0.53138 -0.42672,0.42673 13.58687,24.94914 24.98103,43.71433 5.09483,8.39074 6.98803,11.24389 7.32334,11.03665 0.0817,-0.0505 0.43044,-0.50688 0.77494,-1.01416 z m -37.12343,-11.87663 c 0,-0.69102 -0.80674,-2.63464 -1.95441,-4.70865 -4.02562,-7.27485 -39.65984,-68.76109 -41.48895,-71.58849 -0.25227,-0.38995 -0.45205,-0.51873 -0.80703,-0.52022 -2.3161,-0.01 -24.98326,9.67512 -36.241268,15.48456 -6.94068,3.58158 -9.111906,5.07303 -8.958686,6.15387 0.0659,0.46487 1.267898,1.36835 5.207082,3.91389 19.234292,12.42942 83.031612,51.67586 84.123212,51.7504 0.066,0.005 0.12005,-0.2139 0.12005,-0.48536 z m 73.77733,0.0667 c 3.81279,-2.21616 66.59255,-41.14363 79.80803,-49.48608 6.18962,-3.90729 7.56232,-4.81541 7.97502,-5.276 0.26564,-0.29644 0.27041,-0.36632 0.0532,-0.78034 -1.12033,-2.13569 -9.87143,-6.96875 -23.73557,-13.10868 -10.14342,-4.49216 -20.68258,-8.56008 -21.57997,-8.32947 -0.18502,0.0476 -0.65108,0.59392 -1.06621,1.24999 -3.35639,5.30419 -28.18321,48.38876 -38.67316,67.11358 -4.38304,7.82385 -4.78426,8.59869 -4.60371,8.89083 0.17875,0.28922 1.08896,0.15246 1.82236,-0.27383 z m -85.16122,-67.64212 c -0.19014,-0.37416 -1.40635,-2.5891 -2.70269,-4.92209 -2.6109,-4.69875 -3.41607,-6.24079 -3.31262,-6.34424 0.038,-0.038 1.59484,2.51993 3.45954,5.68441 1.86469,3.16447 3.49792,5.79486 3.62939,5.84531 0.13147,0.0505 0.79434,0.009 1.47304,-0.0919 1.42726,-0.21237 87.3718,-0.27574 89.24404,-0.0658 0.60117,0.0674 1.04537,0.17025 0.98712,0.22853 -0.0583,0.0583 -6.63671,0.14586 -14.61881,0.19463 l -14.51288,0.0887 15.60174,-0.009 15.60173,-0.009 2.29928,-4.08174 c 2.91545,-5.17561 5.09961,-9.57083 5.34743,-10.76076 0.23029,-1.10574 0.0643,-1.71498 -0.54716,-2.00803 -1.14855,-0.55049 -11.13197,-2.67141 -16.29365,-3.46151 -17.88512,-2.73766 -55.71448,-2.86039 -74.75181,-0.24251 -2.57872,0.3546 -7.06562,1.1691 -10.96467,1.9904 -5.23647,1.10301 -6.82627,1.52904 -7.32311,1.96243 -0.57597,0.50242 -0.27347,2.03406 0.90107,4.56232 0.93786,2.0188 6.56606,12.11942 6.7531,12.11942 0.0416,0 -0.0799,-0.30613 -0.27008,-0.68029 z"
     id="path3068"
     transform="scale(0.75)" />
  <path
     style="fill:#6dd18e;fill-rule:evenodd;stroke-width:0.302491"
     d="m 242.38124,333.72175 c -0.0966,-0.01 -0.2482,-0.0942 -0.2482,-0.13829 0,-0.009 9.2897,-5.7913 20.64378,-12.84945 l 20.64379,-12.83299 0.6265,-0.006 0.62651,-0.006 -0.006,0.0748 -0.006,0.0748 -6.25266,3.86947 c -19.98229,12.36608 -34.34206,21.23883 -34.85827,21.53855 -0.28666,0.16645 -0.87315,0.30405 -1.16896,0.27426 z"
     id="path3107"
     transform="scale(0.75)" />
  <path
     style="fill:#6dd18e;fill-rule:evenodd;stroke-width:0.302491"
     d="m 242.07119,333.47873 c -0.0639,-0.1514 -0.0428,-0.23743 0.15557,-0.63709 0.93351,-1.88036 5.54835,-10.11344 12.96201,-23.12479 l 1.04027,-1.82573 0.37586,-5e-5 0.37586,-5e-5 -0.024,0.045 c -0.0132,0.0248 -3.35238,5.78046 -7.42041,12.79044 -4.06802,7.00998 -7.40553,12.762 -7.41669,12.78227 -0.0182,0.033 -0.0232,0.0299 -0.0485,-0.03 z"
     id="path3146"
     transform="scale(0.75)" />
  <path
     style="fill:#6dd18e;fill-rule:evenodd;stroke-width:0.604982"
     d="m 206.19854,346.02026 c -0.0699,-0.0699 -0.0767,-0.0955 -0.0347,-0.13005 0.0288,-0.0237 7.15171,-12.27925 15.82881,-27.23461 8.6771,-14.95536 15.79141,-27.20733 15.80958,-27.2266 0.0182,-0.0193 0.0994,-0.0226 0.18056,-0.007 0.14054,0.0264 0.14636,0.0337 0.12285,0.15508 -0.11839,0.6112 -5.84246,10.81955 -13.60187,24.25767 -7.76657,13.4505 -15.43799,26.3678 -17.52715,29.51256 -0.52482,0.78999 -0.59801,0.85333 -0.77804,0.6733 z"
     id="path3296"
     transform="scale(0.75)" />
  <path
     style="fill:#6dd18e;fill-rule:evenodd;stroke-width:0.604982"
     d="m 256.26045,307.86255 c 5.81373,-10.16897 11.46662,-20.03014 12.06141,-21.0405 l 0.11779,-0.20008 0.44421,-0.0113 0.4442,-0.0113 -6.17264,10.63581 -6.17264,10.6358 -0.37018,0.0115 c -0.20361,0.006 -0.36207,-0.003 -0.35215,-0.02 z"
     id="path3335"
     transform="scale(0.75)" />
  <path
     style="fill:#6dd18e;fill-rule:evenodd;stroke-width:1.20996"
     d="m 268.57237,286.42188 c 0.0641,-0.099 0.75815,-1.29655 1.54234,-2.66113 5.81671,-10.12168 13.50078,-23.27361 15.1737,-25.97105 0.34125,-0.55023 0.72638,-1.10142 0.85584,-1.22485 l 0.2354,-0.22441 0.54074,0.1254 c 3.69914,0.85789 18.89899,7.14219 29.81439,12.3266 4.74485,2.25363 9.59365,4.89343 12.32525,6.71014 0.86261,0.57371 2.19951,1.64345 2.13477,1.70818 -0.0199,0.0199 -0.26533,-0.10365 -0.54529,-0.27467 -0.27996,-0.17102 -1.22933,-0.726 -2.1097,-1.23328 -9.65971,-5.56605 -20.23542,-10.59615 -31.21329,-14.84589 -4.4188,-1.7106 -10.61309,-3.91367 -10.79705,-3.84009 -0.0482,0.0193 -3.94122,6.68254 -8.65122,14.80728 l -8.56365,14.77225 -0.42938,0.003 c -0.42667,0.003 -0.42865,0.002 -0.31285,-0.17728 z"
     id="path3707"
     transform="scale(0.75)" />
  <path
     style="fill:#6dd18e;fill-rule:evenodd;stroke-width:1.20996"
     d="m 284.16754,307.89102 -0.59364,-0.04 24.04362,-14.94605 c 22.82899,-14.19101 24.04493,-14.93554 24.06974,-14.73794 0.0386,0.30706 -0.18462,0.50472 -1.70684,1.51172 -3.18664,2.10805 -33.92549,21.31799 -44.57897,27.85918 l -0.64027,0.39313 z"
     id="path3820"
     transform="scale(0.75)" />
  <path
     style="fill:#6dd18e;fill-rule:evenodd;stroke-width:1.20996"
     d="m 113.89372,163.19399 c -1.32908,-5.4631 -2.12199,-10.56434 -2.58271,-16.61594 -0.17791,-2.33687 -0.20344,-10.61293 -0.0397,-12.88116 0.65316,-9.04971 2.04329,-16.20087 4.84444,-24.9208 l 0.0868,-0.27032 -1.037,-1.0109 C 114.5952,106.93887 105.35031,97.937543 94.621343,87.491922 73.074615,66.514222 74.318272,67.783099 73.309586,65.747978 72.48401,64.082298 72.148573,62.9012 71.974198,61.045977 c -0.205962,-2.191282 0.257343,-4.627989 1.261429,-6.634364 0.770455,-1.539531 1.57972,-2.598913 3.884015,-5.084434 6.584853,-7.102733 16.484589,-14.654542 27.355938,-20.867913 l 1.07159,-0.612448 0.88215,0.02253 0.88215,0.02253 -1.67362,0.929574 c -5.47126,3.038902 -11.312422,6.853359 -15.839637,10.343762 -3.338491,2.573919 -5.903266,4.776914 -8.922617,7.664019 -4.748983,4.540979 -6.681702,6.854645 -7.392433,8.84951 -0.394566,1.107459 -0.485761,1.8239 -0.487085,3.826588 -0.0011,1.646963 0.01776,1.916119 0.179069,2.556283 0.548409,2.176466 2.252316,4.549753 6.582793,9.168845 3.183536,3.39571 5.782548,6.024835 22.9061,23.171486 l 13.90892,13.927695 -1.15488,4.68023 c -1.30583,5.29197 -1.4648,5.98281 -1.81022,7.8665 -0.65943,3.59611 -1.11483,7.82474 -1.36777,12.70048 -0.12052,2.3231 -0.12097,8.78562 -8e-4,11.20477 0.35795,7.20507 1.21619,13.55344 2.5129,18.58791 l 0.34529,1.34057 h -0.41747 -0.41747 l -0.36884,-1.5161 z"
     id="path3859"
     transform="scale(0.75)" />
  <path
     style="fill:#6dd18e;fill-rule:evenodd;stroke-width:0.604982"
     d="m 126.59387,18.526248 v -0.511579 l 0.33014,-0.127244 c 7.38553,-2.846553 16.35006,-5.561846 24.82056,-7.51797 17.55727,-4.054566 36.1747,-5.9989375 56.24394,-5.8740172 3.65931,0.022777 5.09556,0.049459 7.92337,0.1471986 5.2225,0.180508 10.26668,0.5028789 15.36654,0.9820664 1.44308,0.1355937 3.75579,0.3752634 4.42083,0.458139 0.1755,0.02187 0.33306,0.039764 0.35015,0.039764 0.0171,0 0.0311,0.1718888 0.0311,0.3819751 v 0.381975 l -0.13005,-0.022588 C 235.5156,6.7884483 231.29446,6.3047437 229.85781,6.1658111 226.69493,5.8599397 222.6793,5.6218435 218.33291,5.4824713 213.21394,5.3183255 205.52623,5.318357 199.58493,5.482548 186.00075,5.8579541 173.45108,6.915569 165.11026,8.3878757 151.8432,10.729754 139.14708,14.219815 127.16411,18.818964 l -0.57024,0.218863 z"
     id="path3898"
     transform="scale(0.75)" />
  <path
     style="fill:#6dd18e;fill-rule:evenodd;stroke-width:0.604982"
     d="m 126.59387,44.925034 c 0,-0.237108 0.007,-0.256435 0.11005,-0.304391 0.0605,-0.02817 0.56924,-0.248969 1.13048,-0.490677 16.62557,-7.160104 36.7296,-12.196854 55.4636,-13.895532 4.79122,-0.434438 9.46871,-0.690339 15.02639,-0.82208 2.11841,-0.05022 8.70795,-0.05029 10.92465,-1.2e-4 8.94304,0.202398 17.28405,0.763658 25.70094,1.729393 l 1.13048,0.129709 v 0.116542 0.116543 l -0.21009,-0.02487 c -0.11555,-0.01368 -0.73231,-0.08797 -1.37058,-0.165089 -5.95489,-0.719522 -12.79245,-1.23162 -19.5083,-1.461072 -5.21867,-0.178299 -12.2049,-0.1783 -17.30737,-2e-6 -24.03912,0.840008 -45.2191,4.918148 -64.06726,12.335955 -2.06469,0.812569 -4.07037,1.664744 -6.8129,2.894656 l -0.21009,0.09422 z"
     id="path3937"
     transform="scale(0.75)" />
  <path
     style="fill:#6dd18e;fill-rule:evenodd;stroke-width:1.71115"
     d="M 338.54741,55.262698 C 336.87703,51.742025 332.32994,46.858427 325.57737,41.332819 304.32059,23.938454 274.1895,12.082148 238.90577,7.2283529 L 236.16102,6.8507732 V 6.537981 c 0,-0.3908568 -0.0929,-0.3900065 2.77569,-0.025414 28.71629,3.64982 53.97139,12.203626 74.87481,25.359819 5.54502,3.489923 10.85097,7.426469 15.55756,11.542333 3.4054,2.977991 7.96789,7.695318 9.1091,9.418216 0.32498,0.490642 0.34186,0.573852 0.34186,1.685167 0,0.642973 -0.016,1.169041 -0.0356,1.169041 -0.0196,0 -0.12625,-0.191 -0.23701,-0.424445 z"
     id="path3976"
     transform="scale(0.75)" />
  <path
     style="fill:#6dd18e;fill-rule:evenodd;stroke-width:1.71115"
     d="M 93.80257,85.369975 C 78.788186,70.22778 76.406325,67.686589 74.592707,64.875098 c -1.174829,-1.821232 -1.531628,-3.077178 -1.531628,-5.39138 0,-4.082103 0.903327,-5.656863 6.326643,-11.029158 3.426719,-3.39448 6.437188,-6.055452 9.842883,-8.700181 15.557195,-12.08111 36.142345,-21.671677 59.551405,-27.744834 6.20061,-1.608663 13.99552,-3.2314227 19.29809,-4.0175126 11.71149,-1.7361955 28.0813,-2.6747095 43.97247,-2.5210288 10.57458,0.1022649 16.00073,0.4395255 24.10845,1.4984501 21.96809,2.8691867 40.88683,7.9469523 58.29041,15.6450793 2.69082,1.190229 9.33613,4.498885 11.88445,5.917191 9.78675,5.446957 18.81228,12.011631 25.50829,18.55334 3.30154,3.225463 5.31226,5.733489 6.5087,8.118529 l 0.46717,0.931267 v 4.185519 4.18552 l -0.8363,1.108403 c -2.14624,2.844549 -4.71256,5.621687 -10.12386,10.955519 -13.21769,13.028451 -15.75829,15.714351 -15.29899,16.173931 0.43996,0.440227 9.6871,-3.115767 21.90152,-8.422237 2.17882,-0.946572 4.05062,-1.768195 4.15956,-1.825829 0.18764,-0.09927 0.19807,0.265104 0.19807,6.916679 v 7.021468 H 221.79655 104.77304 Z m 43.60432,4.407817 c 4.14989,-1.039078 10.98344,-2.612362 14.06923,-3.239149 15.53583,-3.15564 38.73325,-4.81936 61.09053,-4.381414 25.86576,0.506673 45.65498,2.816715 60.26639,7.035041 3.50429,1.011689 4.6739,1.271589 5.77245,1.282699 0.75785,0.0077 1.07542,-0.0419 1.49599,-0.233478 0.9785,-0.445714 2.35231,-1.922101 2.35231,-2.527934 0,-0.690813 -1.0236,-1.353118 -4.04281,-2.615838 -9.35079,-3.910776 -32.55968,-9.246043 -43.94774,-10.102719 -16.65288,-1.252726 -52.57659,-0.484383 -68.59026,1.467023 -2.98844,0.364169 -3.88381,0.519321 -6.56474,1.137557 -6.08403,1.40301 -13.6209,3.482714 -18.3926,5.075205 -6.45144,2.153077 -8.83555,3.381081 -9.63778,4.964209 -0.23997,0.473562 -0.28189,0.687787 -0.24214,1.237379 0.042,0.580341 0.0994,0.716026 0.45294,1.069524 0.48964,0.489643 1.25678,0.731178 2.12653,0.669538 0.34238,-0.02427 2.04865,-0.401204 3.7917,-0.837643 z m 169.37226,-24.564773 5.14046,-5.065873 -2.31083,-1.900876 c -1.27095,-1.045482 -3.02389,-2.375061 -3.89542,-2.95462 -8.02212,-5.334658 -26.81905,-14.092225 -38.24146,-17.816854 -8.83671,-2.881481 -22.77687,-5.481636 -36.74377,-6.853548 -9.17241,-0.900968 -17.53007,-1.306709 -26.8815,-1.305021 -8.99889,0.0016 -16.15491,0.348581 -23.48593,1.138702 -24.8308,2.676212 -51.24506,11.066509 -68.3073,21.697316 -1.70522,1.062454 -10.92238,7.286005 -10.92238,7.374937 0,0.03619 2.25834,2.323715 5.01853,5.083383 l 5.01852,5.017576 7.00741,-2.994472 c 7.58115,-3.239649 10.2861,-4.348882 14.13808,-5.797681 15.94273,-5.99634 28.93245,-8.571667 48.49988,-9.615529 7.71376,-0.411507 10.56976,-0.456876 28.74905,-0.456696 18.31439,2.27e-4 21.22563,0.04948 27.16446,0.460007 4.24917,0.293727 7.58149,0.712248 12.22401,1.535272 14.5958,2.587531 32.30418,7.895666 43.80269,13.129971 1.08941,0.495915 3.48327,1.683898 5.3197,2.639961 1.83644,0.956062 3.3899,1.74091 3.45215,1.744106 0.0623,0.0032 2.4264,-2.273831 5.25365,-5.060061 z"
     id="path4015"
     transform="scale(0.75)" />
  <path
     style="fill:#6dd18e;fill-rule:evenodd;stroke-width:1.71115"
     d="m 106.22436,27.492958 c 3.54704,-1.974389 8.86311,-4.59107 13.0163,-6.40689 1.97657,-0.864179 7.09372,-2.976428 7.21071,-2.976428 0.0254,0 0.0305,0.212435 0.0114,0.472078 l -0.0348,0.472079 -2.54666,1.032594 c -4.81505,1.952351 -9.63437,4.177388 -14.36775,6.633467 l -2.16564,1.123713 -0.87302,-0.0021 -0.87301,-0.0021 z"
     id="path4054"
     transform="scale(0.75)" />
  <path
     style="fill:#6dd18e;fill-rule:evenodd;stroke-width:1.20996"
     d="m 445.81015,84.787576 -0.0205,-6.931448 -0.72031,-0.259275 c -6.89225,-2.480869 -13.17954,-7.072766 -17.77916,-12.984941 -6.38901,-8.21218 -9.32017,-18.674495 -8.14625,-29.07679 1.63511,-14.489129 10.88963,-26.9410689 24.16645,-32.5159282 3.6358,-1.5266475 7.7736,-2.5293151 11.79816,-2.85891311 2.41083,-0.19743944 6.18842,-0.07389302 8.58803,0.28087265 12.54075,1.85406326 23.4419,9.77096866 29.31257,21.28809366 2.0852,4.090752 3.49875,8.725357 4.07652,13.365687 0.39043,3.135642 0.39052,6.783136 2.4e-4,9.924223 -1.10272,8.875568 -5.09573,17.034407 -11.43769,23.370418 -3.99103,3.987288 -8.64854,7.001394 -13.92752,9.013181 l -1.20052,0.457508 -0.0204,6.929385 -0.0205,6.929381 H 470.23966 470 v -7.231982 -7.231974 l 2.81876,-1.271641 c 1.55031,-0.699402 3.19801,-1.482071 3.66155,-1.739263 6.19616,-3.437883 13.08152,-10.867783 16.25453,-17.54004 3.17438,-6.675125 4.44248,-14.527474 3.5156,-21.769264 -0.87031,-6.799702 -3.47324,-13.178321 -7.59336,-18.607918 -2.90506,-3.828362 -6.6966,-7.2227482 -10.75129,-9.625124 -3.93514,-2.331542 -7.34449,-3.6428313 -12.22763,-4.7029402 -0.59196,-0.1285135 -2.2881,-0.387619 -3.44146,-0.5257268 -1.45592,-0.1743365 -5.90739,-0.2427249 -7.62939,-0.1172111 -9.31803,0.6791757 -16.51229,4.1361513 -23.40958,11.2487451 -2.70069,2.784991 -4.79808,5.572943 -6.50317,8.644351 -6.18817,11.1468 -6.46941,25.032538 -0.73901,36.487123 2.76017,5.517348 6.44985,9.889708 11.58677,13.730602 3.18229,2.379407 6.45614,4.331821 8.12648,4.84635 1.34173,0.413307 1.74734,0.598838 2.11673,0.968232 0.91971,0.919709 1.08261,2.39502 1.08386,9.815714 l 8e-4,4.621967 h -0.51978 -0.51978 l -0.0204,-6.931454 z"
     id="path4093"
     transform="scale(0.75)" />
  <path
     style="fill:#6dd18e;fill-rule:evenodd;stroke-width:0.604982"
     d="m 456.53194,54.941064 c -2.36985,-0.122931 -4.51379,-0.642096 -6.04871,-1.464726 -1.00294,-0.53752 -2.25508,-1.574043 -3.19821,-2.647476 -2.0696,-2.355539 -3.31089,-5.151436 -3.76046,-8.470112 -0.11848,-0.874629 -0.14759,-2.642266 -0.0588,-3.571451 0.30616,-3.204473 1.46348,-6.092175 3.42024,-8.534028 0.39964,-0.498714 1.39204,-1.514585 1.94501,-1.991015 2.30584,-1.98665 4.97123,-3.172492 7.90337,-3.516243 1.07048,-0.125498 2.57708,-0.08913 3.72158,0.08984 2.91749,0.45622 5.68065,1.822285 7.82864,3.87036 3.76129,3.586337 5.36801,8.89142 4.41339,14.572201 -0.42396,2.522961 -1.44943,4.885965 -2.93479,6.762699 -0.41469,0.523949 -1.41602,1.524908 -1.93714,1.936407 -1.9681,1.554126 -4.41147,2.471106 -7.5745,2.84266 -1.23311,0.144851 -2.47774,0.185299 -3.7196,0.120881 z m 2.38804,-0.07765 c 1.55551,-0.09462 2.92875,-0.384529 4.29714,-0.907192 4.48228,-1.712027 7.8703,-5.569086 9.02736,-10.277118 0.30653,-1.247247 0.42498,-2.246999 0.42678,-3.602053 0.003,-2.475723 -0.51057,-4.647745 -1.61414,-6.822903 -2.29092,-4.515418 -6.6729,-7.515206 -11.63544,-7.965318 -0.77517,-0.07031 -2.54489,-0.02861 -3.24756,0.07653 -3.13199,0.468606 -5.81947,1.791725 -8.0579,3.967123 -2.45576,2.386604 -3.94757,5.388294 -4.41515,8.88378 -0.10394,0.77702 -0.10352,2.910044 7.3e-4,3.681567 0.38728,2.866285 1.42292,5.330909 3.15808,7.51567 0.52036,0.655187 1.67293,1.808785 2.31126,2.313316 2.58475,2.042972 5.53098,3.099114 8.84376,3.170248 0.14306,0.0031 0.55035,-0.01207 0.90508,-0.03365 z"
     id="path4132"
     transform="scale(0.75)" />
  <path
     style="fill:#6dd18e;fill-rule:evenodd;stroke-width:0.302491"
     d="m 100.37458,239.51339 c 0.0256,-0.0256 2.39226,-0.99702 3.83626,-1.57465 9.79288,-3.91734 19.82221,-7.23616 30.21636,-9.99897 0.85705,-0.2278 2.60869,-0.68306 2.62814,-0.68306 0.007,0 0.013,0.16172 0.013,0.35938 v 0.35938 l -0.075,0.0194 c -10.29554,2.65655 -21.92427,6.57611 -33.00727,11.12539 l -0.97863,0.40171 h -1.32068 c -0.72637,0 -1.31684,-0.004 -1.31214,-0.009 z"
     id="path4171"
     transform="scale(0.75)" />
  <path
     style="fill:#6dd18e;fill-rule:evenodd;stroke-width:1.20996"
     d="m 155.81566,221.89751 c -5.9972,-3.84081 -11.00682,-7.88641 -16.2005,-13.08299 -3.15656,-3.15833 -5.20849,-5.45887 -7.73866,-8.67631 -7.778,-9.89072 -13.73706,-21.59084 -17.0658,-33.5073 -0.22748,-0.81435 -0.44514,-1.57967 -0.48368,-1.70073 l -0.0701,-0.22009 h 0.42365 0.42364 l 0.2179,0.74032 c 3.429,11.64999 9.19829,23.12684 16.68637,33.19412 4.34258,5.83837 9.54243,11.35073 14.57388,15.44978 1.29425,1.05441 1.69058,1.35755 4.44189,3.39746 3.76249,2.78964 6.63529,5.1967 6.38412,5.34914 -0.0338,0.0205 -0.75052,-0.40402 -1.59273,-0.9434 z"
     id="path4210"
     transform="scale(0.75)" />
  <path
     style="fill:#6dd18e;fill-rule:evenodd;stroke-width:1.20996"
     d="m 28.935168,287.47892 c 0.611022,-0.72979 5.484143,-5.62813 7.21999,-7.25734 3.860291,-3.62315 7.362143,-6.6666 11.024919,-9.58175 0.770328,-0.61309 1.634696,-1.33556 1.920817,-1.60549 0.649038,-0.61229 1.540257,-1.27509 2.314965,-1.72161 0.326827,-0.18838 1.137172,-0.74533 1.800766,-1.23766 7.046635,-5.22805 15.071986,-10.38019 23.232155,-14.91465 7.10105,-3.94593 15.684278,-8.14072 22.699214,-11.09355 l 1.247076,-0.52494 1.22435,0.003 1.22434,0.003 -0.4802,0.20419 c -12.446774,5.29254 -21.53758,9.80166 -31.093232,15.42251 -10.175676,5.98556 -21.507121,14.17837 -30.434917,22.00491 -3.193338,2.79944 -7.422087,6.8317 -9.702163,9.25136 l -1.360579,1.44387 -0.587699,0.004 -0.5877,0.004 z"
     id="path4288"
     transform="scale(0.75)" />
  <path
     style="fill:#6dd18e;fill-rule:evenodd;stroke-width:1.20996"
     d="m 137.12497,227.62032 c -0.0365,-0.38258 -0.31268,-0.27299 2.33438,-0.92626 3.76259,-0.92858 7.4289,-1.74582 11.44487,-2.55112 3.19341,-0.64036 6.16916,-1.18819 6.21347,-1.14388 0.0994,0.0994 -2.53158,0.87779 -5.02622,1.48702 -0.89509,0.2186 -2.65388,0.61917 -3.90841,0.89017 -4.66074,1.00679 -6.33795,1.38448 -8.52363,1.9194 -1.23252,0.30165 -2.29998,0.57167 -2.37212,0.60005 -0.10603,0.0417 -0.13713,-0.011 -0.16234,-0.27538 z"
     id="path4327"
     transform="scale(0.75)" />
</svg>
