<svg xmlns="http://www.w3.org/2000/svg" width="23.75" height="19" viewBox="0 0 23.75 19"><path id="Path_872" data-name="Path 872" d="M18.443-2.783A4.407,4.407,0,0,0,20.095-.761,4.842,4.842,0,0,0,22.859,0a.859.859,0,0,1,.631.26.859.859,0,0,1,.26.631v.594a.859.859,0,0,1-.26.631.859.859,0,0,1-.631.26A6.922,6.922,0,0,1,17.553.186a3.573,3.573,0,0,1-1.3,1.577,3.455,3.455,0,0,1-2,.612H9.5a3.455,3.455,0,0,1-2-.612A3.573,3.573,0,0,1,6.2.186,6.922,6.922,0,0,1,.891,2.375a.859.859,0,0,1-.631-.26A.859.859,0,0,1,0,1.484V.891A.859.859,0,0,1,.26.26.859.859,0,0,1,.891,0,4.932,4.932,0,0,0,3.674-.761,4.153,4.153,0,0,0,5.307-2.783l-2.6-2.6a1.187,1.187,0,0,1-.3-1.132,1.058,1.058,0,0,1,.779-.835l1.559-.52v-5.2A1.141,1.141,0,0,1,5.1-13.9a1.141,1.141,0,0,1,.835-.353H8.313v-1.484a.859.859,0,0,1,.26-.631.859.859,0,0,1,.631-.26h5.344a.859.859,0,0,1,.631.26.859.859,0,0,1,.26.631v1.484h2.375a1.141,1.141,0,0,1,.835.353,1.141,1.141,0,0,1,.353.835v5.2l1.559.52a1.058,1.058,0,0,1,.779.835,1.187,1.187,0,0,1-.3,1.132ZM7.125-11.875v3.266L11.5-10.02a.993.993,0,0,1,.371-.074.993.993,0,0,1,.371.074l4.379,1.41v-3.266Z" transform="translate(0 16.625)" fill="#f59e0b"/></svg>