<svg xmlns="http://www.w3.org/2000/svg" viewBox="0 0 30 30"><symbol id="adv_icon_ship-operator" viewBox="0 0 30 30"><circle cx="15" cy="15" r="15"/><g style="fill: #f59e0b;"><g style="fill: #f59e0b;"><path d="M21.6 13.6V9.4c0-.4-.3-.7-.7-.7H9.1c-.4 0-.7.3-.7.7v4.2l5.8-2.9c.2-.1.5-.2.8-.2.3 0 .5.1.8.2l5.8 2.9zM6.3 16.5L9 24.6c.1.2.3.4.6.4h4.8V11.8l-7.8 3.9c-.2.2-.4.5-.3.8zm17.1-.8l-7.8-3.9V25h4.8c.3 0 .5-.2.6-.4l2.7-8.1c.1-.3-.1-.6-.3-.8zm-3.3-10c0-.4-.3-.7-.7-.7h-8.9c-.4 0-.7.3-.7.7v1.9h10.3V5.7z" style="fill: #f59e0b;"/></g></g><g id="XMLID_293_"><path d="M21.5 23.4c-.4 0-.6-.3-.6-.6h-1.3c0 .4-.3.6-.6.6-.4 0-.6-.3-.6-.6h-1.3c0 .4-.3.6-.6.6-.4 0-.6-.3-.6-.6h-1.3c0 .4-.3.6-.6.6s-.6-.3-.6-.6h-1.3c0 .4-.3.6-.6.6-.4 0-.6-.3-.6-.6H9.2c0 .4-.3.6-.6.6s-.6-.3-.6-.6H6.6c0 1.1.9 1.9 1.9 1.9.5 0 1-.2 1.3-.5.3.3.8.5 1.3.5s1-.2 1.3-.5c.3.3.8.5 1.3.5s1-.2 1.3-.5c.3.3.8.5 1.3.5s1-.2 1.3-.5c.3.3.8.5 1.3.5s1-.2 1.3-.5c.3.3.8.5 1.3.5 1.1 0 1.9-.9 1.9-1.9h-1.3c0 .3-.3.6-.6.6zm.6-10.5v-2.4h-1.3V7.9h-3.9v-.7c0-1.1-.9-1.9-1.9-1.9s-1.9.9-1.9 1.9v.6H9.2v2.6H7.9v2.4l7.1-1.6 7.1 1.7zm-3.9-3.7h1.3v1.3h-1.3V9.2zm-2.6 0h1.3v1.3h-1.3V9.2zm-3.8 1.3h-1.3V9.2h1.3v1.3zm2.6 0h-1.3V9.2h1.3v1.3z" style="fill: #f59e0b;"/><path d="M8.7 21.9h5.7v-9.2l-7.9 1.7.1.6c0 .3.5 3.9 2.1 6.9zm6.9 0h5.7c1.6-3 2.1-6.6 2.1-6.8l.1-.6-7.9-1.7v9.1z" style="fill: #f59e0b;"/></g></symbol><use xmlns:xlink="http://www.w3.org/1999/xlink" xlink:href="#adv_icon_ship-operator"/></svg>