<?xml version="1.0" encoding="UTF-8" standalone="no"?>
<svg
   width="473.48907pt"
   height="411.21313pt"
   version="1.1"
   viewBox="0 0 473.48907 411.21313"
   id="svg846"
   sodipodi:docname="ship.svg"
   inkscape:version="1.1.1 (3bf5ae0d25, 2021-09-20)"
   xmlns:inkscape="http://www.inkscape.org/namespaces/inkscape"
   xmlns:sodipodi="http://sodipodi.sourceforge.net/DTD/sodipodi-0.dtd"
   xmlns="http://www.w3.org/2000/svg"
   xmlns:svg="http://www.w3.org/2000/svg">
  <sodipodi:namedview
     id="namedview848"
     pagecolor="#ffffff"
     bordercolor="#666666"
     borderopacity="1.0"
     inkscape:pageshadow="2"
     inkscape:pageopacity="0.0"
     inkscape:pagecheckerboard="0"
     inkscape:document-units="pt"
     showgrid="false"
     inkscape:zoom="0.78091755"
     inkscape:cx="315.01405"
     inkscape:cy="272.11579"
     inkscape:window-width="2400"
     inkscape:window-height="1271"
     inkscape:window-x="-9"
     inkscape:window-y="4"
     inkscape:window-maximized="1"
     inkscape:current-layer="svg846" />
  <defs
     id="defs840">
    <clipPath
       id="a">
      <path
         d="M 139.21,170 H 612.79 V 582 H 139.21 Z"
         id="path837" />
    </clipPath>
  </defs>
  <g
     clip-path="url(#a)"
     id="g844"
     transform="translate(-139.21,-170.456)"
     style="fill:#6dd18e;fill-opacity:1">
    <path
       d="m 304.84,284.51 h 6.9414 v -19.836 h -14.383 v -17.355 h 39.176 V 230.46 h 34.711 v -60.004 h 9.4219 v 60.004 h 34.219 v 16.859 h 39.672 v 17.355 h -14.383 v 19.836 h 6.9414 v 16.859 c -49.094,-12.895 -93.227,-12.895 -142.32,0 V 284.51 Z M 141.2,544.36 c -8.4297,-11.902 10.414,-24.793 18.844,-12.895 10.414,15.371 27.77,24.793 46.613,24.793 28.762,0 41.16,-14.875 56.531,-36.199 36.199,49.59 75.871,49.59 113.06,0.99219 36.199,50.582 75.871,50.582 112.57,0.99219 15.371,21.324 27.273,36.695 56.035,37.191 18.844,0 36.199,-8.9258 47.605,-23.805 8.4297,-11.902 26.777,1.4883 17.852,13.391 -29.258,39.672 -86.781,44.137 -121.99,9.4219 -31.738,30.25 -81.824,29.754 -112.57,-0.99219 -31.738,29.258 -81.328,28.762 -112.57,-0.99219 -35.207,34.219 -93.227,28.762 -121.99,-11.902 z M 531.97,348.48 c -106.12,-61.492 -205.8,-61.492 -312.41,0 46.613,80.336 73.887,107.61 74.879,186.46 23.805,18.348 47.109,10.91 71.906,-21.324 l 10.414,-13.391 9.918,13.391 c 23.805,33.723 46.613,41.16 70.914,23.309 0.49609,-80.336 27.77,-107.11 74.383,-188.44 z m -44.629,32.234 c 3.4727,0 5.9492,2.4805 5.9492,5.9492 0,2.9766 -2.4805,5.9492 -5.9492,5.9492 -2.9766,0 -5.4531,-2.9766 -5.4531,-5.9492 0,-3.4727 2.4805,-5.9492 5.4531,-5.9492 z m -18.844,-13.391 c -5.9492,0 -10.414,4.957 -10.414,10.414 0,5.9492 4.4648,10.414 10.414,10.414 5.4531,0 10.414,-4.4648 10.414,-10.414 0,-5.4531 -4.957,-10.414 -10.414,-10.414 z m -37.688,-25.289 c 12.398,0 21.82,9.4219 21.82,21.324 0,12.398 -9.4219,21.82 -21.82,21.82 -11.902,0 -21.324,-9.4219 -21.324,-21.82 0,-11.902 9.4219,-21.324 21.324,-21.324 z m -67.441,-61.492 h 25.289 V 268.64 h -25.289 z m 63.969,0 H 402.048 V 268.64 h 25.289 z m -102.65,0 h 25.289 V 268.64 h -25.289 z"
       fill-rule="evenodd"
       id="path842"
       style="fill:#6dd18e;fill-opacity:1" />
  </g>
</svg>
